
<svg width="800" height="300" xmlns="http://www.w3.org/2000/svg">

<defs>
  <linearGradient id="grad" x1="0%" y1="0%" x2="100%" y2="0%">
    <stop offset="0%" stop-color="#7df9ff"/>
    <stop offset="100%" stop-color="#ff6ec7"/>
  </linearGradient>
</defs>


<style>
.title { fill: #c084fc; font-size: 16px; font-weight: 600; }
.label { fill: #9ca3af; font-size: 12px; }
.card { fill: #0d1117; stroke: #1f2937; stroke-width: 1; }
.main { stroke: url(#grad); stroke-width: 3; fill: none; filter: drop-shadow(0 0 6px #7df9ff); }
.shadow { stroke: #ff6ec7; stroke-width: 3; opacity: 0.25; fill: none; filter: blur(4px); }
.pred { stroke: #ffffff; stroke-width: 2; fill: none; stroke-dasharray: 5,5; opacity: 0.4; }
</style>


<rect x="5" y="5" width="790" height="290" rx="12" class="card"/>

<text class="title" x="24" y="40">📈 Contribution Trend</text>
<line x1="20" y1="50" x2="780" y2="50" stroke="#1f2937"/>

<rect x="40.0" y="260" width="24.0" height="6" fill="#ff6ec7" opacity="0.21428571428571427" /><rect x="64.0" y="260" width="24.0" height="6" fill="#ff6ec7" opacity="0.44285714285714284" /><rect x="88.0" y="260" width="24.0" height="6" fill="#ff6ec7" opacity="0.15714285714285714" /><rect x="112.0" y="260" width="24.0" height="6" fill="#ff6ec7" opacity="0.15714285714285714" /><rect x="136.0" y="260" width="24.0" height="6" fill="#ff6ec7" opacity="0.21428571428571427" /><rect x="160.0" y="260" width="24.0" height="6" fill="#ff6ec7" opacity="0.4714285714285714" /><rect x="184.0" y="260" width="24.0" height="6" fill="#ff6ec7" opacity="0.21428571428571427" /><rect x="208.0" y="260" width="24.0" height="6" fill="#ff6ec7" opacity="0.12857142857142856" /><rect x="232.0" y="260" width="24.0" height="6" fill="#ff6ec7" opacity="0.15714285714285714" /><rect x="256.0" y="260" width="24.0" height="6" fill="#ff6ec7" opacity="0.7" /><rect x="280.0" y="260" width="24.0" height="6" fill="#ff6ec7" opacity="0.2714285714285714" /><rect x="304.0" y="260" width="24.0" height="6" fill="#ff6ec7" opacity="0.2714285714285714" /><rect x="328.0" y="260" width="24.0" height="6" fill="#ff6ec7" opacity="0.3" /><rect x="352.0" y="260" width="24.0" height="6" fill="#ff6ec7" opacity="0.24285714285714285" /><rect x="376.0" y="260" width="24.0" height="6" fill="#ff6ec7" opacity="0.3" /><rect x="400.0" y="260" width="24.0" height="6" fill="#ff6ec7" opacity="0.21428571428571427" /><rect x="424.0" y="260" width="24.0" height="6" fill="#ff6ec7" opacity="0.15714285714285714" /><rect x="448.0" y="260" width="24.0" height="6" fill="#ff6ec7" opacity="0.5857142857142857" /><rect x="472.0" y="260" width="24.0" height="6" fill="#ff6ec7" opacity="0.2714285714285714" /><rect x="496.0" y="260" width="24.0" height="6" fill="#ff6ec7" opacity="0.15714285714285714" /><rect x="520.0" y="260" width="24.0" height="6" fill="#ff6ec7" opacity="0.12857142857142856" /><rect x="544.0" y="260" width="24.0" height="6" fill="#ff6ec7" opacity="0.18571428571428572" /><rect x="568.0" y="260" width="24.0" height="6" fill="#ff6ec7" opacity="0.3571428571428571" /><rect x="592.0" y="260" width="24.0" height="6" fill="#ff6ec7" opacity="0.6714285714285714" /><rect x="616.0" y="260" width="24.0" height="6" fill="#ff6ec7" opacity="0.3857142857142857" /><rect x="640.0" y="260" width="24.0" height="6" fill="#ff6ec7" opacity="0.12857142857142856" /><rect x="664.0" y="260" width="24.0" height="6" fill="#ff6ec7" opacity="0.12857142857142856" /><rect x="688.0" y="260" width="24.0" height="6" fill="#ff6ec7" opacity="0.2714285714285714" /><rect x="712.0" y="260" width="24.0" height="6" fill="#ff6ec7" opacity="0.15714285714285714" /><rect x="736.0" y="260" width="24.0" height="6" fill="#ff6ec7" opacity="0.1" />

<!-- TODAY LINE -->
<line x1="736.0" 
      y1="60" 
      x2="736.0" 
      y2="260"
      stroke="#ff6ec7"
      stroke-opacity="0.3"
      stroke-dasharray="4,4"/>

<text x="736.0" y="50"
      fill="#ff6ec7" font-size="10" text-anchor="middle">
Today
</text>

<polyline class="shadow" points="46.0,228.0952380952381 70.0,144.28571428571428 94.0,249.04761904761904 118.0,249.04761904761904 142.0,228.0952380952381 166.0,133.8095238095238 190.0,228.0952380952381 214.0,259.5238095238095 238.0,249.04761904761904 262.0,50.0 286.0,207.14285714285714 310.0,207.14285714285714 334.0,196.66666666666669 358.0,217.61904761904762 382.0,196.66666666666669 406.0,228.0952380952381 430.0,249.04761904761904 454.0,91.9047619047619 478.0,207.14285714285714 502.0,249.04761904761904 526.0,259.5238095238095 550.0,238.57142857142858 574.0,175.71428571428572 598.0,60.47619047619048 622.0,165.23809523809524 646.0,259.5238095238095 670.0,259.5238095238095 694.0,207.14285714285714 718.0,249.04761904761904 742.0,270.0"/>
<polyline class="main" points="40.0,218.0952380952381 64.0,134.28571428571428 88.0,239.04761904761904 112.0,239.04761904761904 136.0,218.0952380952381 160.0,123.8095238095238 184.0,218.0952380952381 208.0,249.52380952380952 232.0,239.04761904761904 256.0,40.0 280.0,197.14285714285714 304.0,197.14285714285714 328.0,186.66666666666669 352.0,207.61904761904762 376.0,186.66666666666669 400.0,218.0952380952381 424.0,239.04761904761904 448.0,81.9047619047619 472.0,197.14285714285714 496.0,239.04761904761904 520.0,249.52380952380952 544.0,228.57142857142858 568.0,165.71428571428572 592.0,50.47619047619048 616.0,155.23809523809524 640.0,249.52380952380952 664.0,249.52380952380952 688.0,197.14285714285714 712.0,239.04761904761904 736.0,260.0"/>
<polyline class="pred" points="40.0,260.0 64.0,260.0 88.0,260.0 112.0,260.0 136.0,209.71428571428572 160.0,190.85714285714286 184.0,207.61904761904762 208.0,209.71428571428572 232.0,209.71428571428572 256.0,174.0952380952381 280.0,188.76190476190476 304.0,184.57142857142856 328.0,172.0 352.0,165.71428571428572 376.0,195.04761904761904 400.0,199.23809523809524 424.0,207.61904761904762 448.0,186.66666666666669 472.0,184.57142857142856 496.0,195.04761904761904 520.0,201.33333333333334 544.0,199.23809523809524 568.0,216.0 592.0,186.66666666666669 616.0,169.90476190476193 640.0,169.90476190476193 664.0,174.0952380952381 688.0,180.38095238095238 712.0,218.0952380952381 736.0,239.04761904761904"/>

<!-- 🔥 ADD CIRCLES HERE -->
<circle cx="40.0" cy="218.0952380952381" r="3" fill="white" stroke="#ff6ec7" stroke-width="1"/><circle cx="64.0" cy="134.28571428571428" r="3" fill="white" stroke="#ff6ec7" stroke-width="1"/><circle cx="88.0" cy="239.04761904761904" r="3" fill="white" stroke="#ff6ec7" stroke-width="1"/><circle cx="112.0" cy="239.04761904761904" r="3" fill="white" stroke="#ff6ec7" stroke-width="1"/><circle cx="136.0" cy="218.0952380952381" r="3" fill="white" stroke="#ff6ec7" stroke-width="1"/><circle cx="160.0" cy="123.8095238095238" r="3" fill="white" stroke="#ff6ec7" stroke-width="1"/><circle cx="184.0" cy="218.0952380952381" r="3" fill="white" stroke="#ff6ec7" stroke-width="1"/><circle cx="208.0" cy="249.52380952380952" r="3" fill="white" stroke="#ff6ec7" stroke-width="1"/><circle cx="232.0" cy="239.04761904761904" r="3" fill="white" stroke="#ff6ec7" stroke-width="1"/><circle cx="256.0" cy="40.0" r="3" fill="white" stroke="#ff6ec7" stroke-width="1"/><circle cx="280.0" cy="197.14285714285714" r="3" fill="white" stroke="#ff6ec7" stroke-width="1"/><circle cx="304.0" cy="197.14285714285714" r="3" fill="white" stroke="#ff6ec7" stroke-width="1"/><circle cx="328.0" cy="186.66666666666669" r="3" fill="white" stroke="#ff6ec7" stroke-width="1"/><circle cx="352.0" cy="207.61904761904762" r="3" fill="white" stroke="#ff6ec7" stroke-width="1"/><circle cx="376.0" cy="186.66666666666669" r="3" fill="white" stroke="#ff6ec7" stroke-width="1"/><circle cx="400.0" cy="218.0952380952381" r="3" fill="white" stroke="#ff6ec7" stroke-width="1"/><circle cx="424.0" cy="239.04761904761904" r="3" fill="white" stroke="#ff6ec7" stroke-width="1"/><circle cx="448.0" cy="81.9047619047619" r="3" fill="white" stroke="#ff6ec7" stroke-width="1"/><circle cx="472.0" cy="197.14285714285714" r="3" fill="white" stroke="#ff6ec7" stroke-width="1"/><circle cx="496.0" cy="239.04761904761904" r="3" fill="white" stroke="#ff6ec7" stroke-width="1"/><circle cx="520.0" cy="249.52380952380952" r="3" fill="white" stroke="#ff6ec7" stroke-width="1"/><circle cx="544.0" cy="228.57142857142858" r="3" fill="white" stroke="#ff6ec7" stroke-width="1"/><circle cx="568.0" cy="165.71428571428572" r="3" fill="white" stroke="#ff6ec7" stroke-width="1"/><circle cx="592.0" cy="50.47619047619048" r="3" fill="white" stroke="#ff6ec7" stroke-width="1"/><circle cx="616.0" cy="155.23809523809524" r="3" fill="white" stroke="#ff6ec7" stroke-width="1"/><circle cx="640.0" cy="249.52380952380952" r="3" fill="white" stroke="#ff6ec7" stroke-width="1"/><circle cx="664.0" cy="249.52380952380952" r="3" fill="white" stroke="#ff6ec7" stroke-width="1"/><circle cx="688.0" cy="197.14285714285714" r="3" fill="white" stroke="#ff6ec7" stroke-width="1"/><circle cx="712.0" cy="239.04761904761904" r="3" fill="white" stroke="#ff6ec7" stroke-width="1"/><circle cx="736.0" cy="260.0" r="3" fill="white" stroke="#ff6ec7" stroke-width="1"/>

<!-- subtle hover illusion -->
<circle cx="736.0" cy="260.0" r="5" fill="#ff6ec7" opacity="0.8">
  <animate attributeName="r" values="4;7;4" dur="2s" repeatCount="indefinite"/>
</circle>

<text class="label" x="24" y="70">
📅 Apr 09 → May 08
</text>

</svg>
