
<svg width="800" height="300" xmlns="http://www.w3.org/2000/svg">
<style>
.glow {
    stroke: #7df9ff;
    stroke-width: 2;
    fill: none;
    filter: drop-shadow(0 0 6px #7df9ff);
}

.pred {
    stroke: #ff6ec7;
    stroke-width: 2;
    fill: none;
    stroke-dasharray: 5,5;
}

.line {
    stroke-dasharray: 1000;
    animation: draw 2s ease-out forwards;
}

@keyframes draw {
    from { stroke-dashoffset: 1000; }
    to { stroke-dashoffset: 0; }
}
</style>

<rect width="100%" height="100%" fill="#0d1117"/>

<polyline class="glow line" points="40.0,239.04761904761904 41.94070080862534,228.57142857142858 43.881401617250674,239.04761904761904 45.82210242587601,228.57142857142858 47.76280323450135,207.61904761904762 49.703504043126685,123.8095238095238 51.64420485175202,249.52380952380952 53.58490566037736,239.04761904761904 55.525606469002696,260.0 57.46630727762803,207.61904761904762 59.40700808625337,186.66666666666669 61.34770889487871,186.66666666666669 63.288409703504044,260.0 65.22911051212938,260.0 67.16981132075472,260.0 69.11051212938006,260.0 71.05121293800539,260.0 72.99191374663073,260.0 74.93261455525607,260.0 76.8733153638814,260.0 78.81401617250674,260.0 80.75471698113208,260.0 82.69541778975741,260.0 84.63611859838275,260.0 86.57681940700809,260.0 88.51752021563343,260.0 90.45822102425876,260.0 92.3989218328841,260.0 94.33962264150944,260.0 96.28032345013477,260.0 98.22102425876011,260.0 100.16172506738545,260.0 102.10242587601078,260.0 104.04312668463612,260.0 105.98382749326146,260.0 107.9245283018868,260.0 109.86522911051213,260.0 111.80592991913747,260.0 113.7466307277628,260.0 115.68733153638814,260.0 117.62803234501348,260.0 119.56873315363882,260.0 121.50943396226415,260.0 123.45013477088949,260.0 125.39083557951483,260.0 127.33153638814017,260.0 129.2722371967655,260.0 131.21293800539084,260.0 133.15363881401618,260.0 135.0943396226415,260.0 137.03504043126685,260.0 138.9757412398922,260.0 140.91644204851752,260.0 142.85714285714286,260.0 144.7978436657682,260.0 146.73854447439354,260.0 148.67924528301887,260.0 150.6199460916442,260.0 152.56064690026955,260.0 154.50134770889488,260.0 156.44204851752022,260.0 158.38274932614556,260.0 160.3234501347709,260.0 162.26415094339623,260.0 164.20485175202157,260.0 166.1455525606469,260.0 168.08625336927224,260.0 170.02695417789758,260.0 171.96765498652292,260.0 173.90835579514825,260.0 175.8490566037736,260.0 177.78975741239893,260.0 179.73045822102426,260.0 181.6711590296496,260.0 183.61185983827494,260.0 185.55256064690028,260.0 187.4932614555256,260.0 189.43396226415095,260.0 191.3746630727763,260.0 193.31536388140162,260.0 195.25606469002696,260.0 197.1967654986523,260.0 199.13746630727763,260.0 201.07816711590297,260.0 203.0188679245283,260.0 204.95956873315365,260.0 206.90026954177898,260.0 208.84097035040432,260.0 210.78167115902966,260.0 212.722371967655,239.04761904761904 214.66307277628033,260.0 216.60377358490567,260.0 218.544474393531,260.0 220.48517520215634,260.0 222.42587601078168,260.0 224.36657681940702,260.0 226.30727762803235,260.0 228.2479784366577,260.0 230.18867924528303,260.0 232.12938005390836,260.0 234.0700808625337,260.0 236.01078167115904,260.0 237.95148247978437,260.0 239.8921832884097,260.0 241.83288409703505,260.0 243.77358490566039,260.0 245.71428571428572,260.0 247.65498652291106,260.0 249.5956873315364,260.0 251.53638814016173,260.0 253.47708894878707,260.0 255.4177897574124,260.0 257.35849056603774,260.0 259.2991913746631,260.0 261.2398921832884,260.0 263.1805929919137,260.0 265.1212938005391,260.0 267.06199460916446,260.0 269.00269541778977,260.0 270.9433962264151,260.0 272.88409703504044,260.0 274.8247978436658,260.0 276.7654986522911,260.0 278.7061994609164,260.0 280.6469002695418,260.0 282.58760107816715,260.0 284.52830188679246,260.0 286.46900269541777,260.0 288.40970350404314,260.0 290.3504043126685,260.0 292.2911051212938,260.0 294.2318059299191,260.0 296.1725067385445,260.0 298.1132075471698,260.0 300.05390835579516,260.0 301.99460916442047,260.0 303.93530997304583,260.0 305.87601078167114,260.0 307.8167115902965,260.0 309.7574123989218,249.52380952380952 311.6981132075472,260.0 313.6388140161725,260.0 315.57951482479785,260.0 317.52021563342316,260.0 319.46091644204853,260.0 321.40161725067384,260.0 323.3423180592992,260.0 325.2830188679245,260.0 327.2237196765499,260.0 329.1644204851752,260.0 331.10512129380055,260.0 333.04582210242586,260.0 334.9865229110512,260.0 336.92722371967653,260.0 338.8679245283019,260.0 340.8086253369272,260.0 342.7493261455526,260.0 344.6900269541779,260.0 346.63072776280325,260.0 348.57142857142856,260.0 350.5121293800539,260.0 352.45283018867923,260.0 354.3935309973046,260.0 356.3342318059299,260.0 358.27493261455527,260.0 360.2156334231806,260.0 362.15633423180594,260.0 364.09703504043125,260.0 366.0377358490566,260.0 367.9784366576819,260.0 369.9191374663073,260.0 371.8598382749326,260.0 373.80053908355796,260.0 375.7412398921833,260.0 377.68194070080864,260.0 379.62264150943395,260.0 381.5633423180593,260.0 383.5040431266846,260.0 385.44474393531,260.0 387.3854447439353,260.0 389.32614555256066,260.0 391.26684636118597,260.0 393.20754716981133,260.0 395.14824797843664,260.0 397.088948787062,260.0 399.0296495956873,260.0 400.9703504043127,260.0 402.911051212938,260.0 404.85175202156336,260.0 406.79245283018867,260.0 408.73315363881403,260.0 410.67385444743934,260.0 412.6145552560647,260.0 414.55525606469,260.0 416.4959568733154,260.0 418.4366576819407,260.0 420.37735849056605,260.0 422.31805929919136,260.0 424.2587601078167,260.0 426.19946091644204,260.0 428.1401617250674,260.0 430.0808625336927,260.0 432.0215633423181,260.0 433.9622641509434,260.0 435.90296495956875,260.0 437.84366576819406,260.0 439.7843665768194,260.0 441.72506738544473,260.0 443.6657681940701,260.0 445.6064690026954,260.0 447.54716981132077,260.0 449.4878706199461,260.0 451.42857142857144,260.0 453.36927223719675,260.0 455.3099730458221,260.0 457.2506738544474,260.0 459.1913746630728,260.0 461.1320754716981,260.0 463.07277628032347,260.0 465.0134770889488,260.0 466.95417789757414,260.0 468.89487870619945,260.0 470.8355795148248,260.0 472.7762803234501,260.0 474.7169811320755,260.0 476.6576819407008,260.0 478.59838274932616,260.0 480.53908355795147,260.0 482.47978436657684,260.0 484.42048517520215,260.0 486.3611859838275,260.0 488.3018867924528,260.0 490.2425876010782,260.0 492.1832884097035,260.0 494.12398921832886,260.0 496.06469002695417,260.0 498.00539083557953,260.0 499.94609164420484,260.0 501.8867924528302,260.0 503.8274932614555,260.0 505.7681940700809,260.0 507.7088948787062,260.0 509.64959568733155,260.0 511.59029649595686,260.0 513.5309973045822,260.0 515.4716981132076,260.0 517.4123989218328,260.0 519.3530997304582,260.0 521.2938005390836,260.0 523.2345013477088,260.0 525.1752021563343,260.0 527.1159029649596,260.0 529.0566037735849,260.0 530.9973045822103,260.0 532.9380053908355,260.0 534.8787061994609,260.0 536.8194070080863,260.0 538.7601078167115,260.0 540.700808625337,260.0 542.6415094339623,260.0 544.5822102425876,260.0 546.522911051213,260.0 548.4636118598382,260.0 550.4043126684636,260.0 552.345013477089,260.0 554.2857142857143,260.0 556.2264150943396,260.0 558.167115902965,260.0 560.1078167115903,260.0 562.0485175202157,260.0 563.9892183288409,260.0 565.9299191374663,260.0 567.8706199460917,260.0 569.811320754717,260.0 571.7520215633423,260.0 573.6927223719676,260.0 575.633423180593,260.0 577.5741239892184,260.0 579.5148247978436,260.0 581.455525606469,260.0 583.3962264150944,260.0 585.3369272237197,260.0 587.277628032345,260.0 589.2183288409703,260.0 591.1590296495957,260.0 593.0997304582211,260.0 595.0404312668463,260.0 596.9811320754717,260.0 598.9218328840971,260.0 600.8625336927224,260.0 602.8032345013477,260.0 604.743935309973,260.0 606.6846361185984,260.0 608.6253369272238,260.0 610.566037735849,260.0 612.5067385444744,260.0 614.4474393530998,260.0 616.3881401617251,260.0 618.3288409703504,260.0 620.2695417789757,260.0 622.2102425876011,260.0 624.1509433962265,260.0 626.0916442048517,260.0 628.0323450134771,260.0 629.9730458221024,260.0 631.9137466307278,260.0 633.8544474393531,260.0 635.7951482479784,260.0 637.7358490566038,260.0 639.6765498652292,260.0 641.6172506738544,260.0 643.5579514824798,260.0 645.4986522911051,260.0 647.4393530997305,260.0 649.3800539083558,260.0 651.3207547169811,260.0 653.2614555256065,260.0 655.2021563342319,260.0 657.1428571428571,260.0 659.0835579514825,260.0 661.0242587601078,260.0 662.9649595687332,260.0 664.9056603773585,260.0 666.8463611859838,260.0 668.7870619946092,260.0 670.7277628032346,260.0 672.6684636118598,260.0 674.6091644204852,260.0 676.5498652291105,260.0 678.4905660377359,260.0 680.4312668463612,260.0 682.3719676549865,260.0 684.3126684636119,260.0 686.2533692722373,260.0 688.1940700808625,260.0 690.1347708894879,249.52380952380952 692.0754716981132,260.0 694.0161725067386,260.0 695.9568733153639,260.0 697.8975741239892,260.0 699.8382749326146,218.0952380952381 701.77897574124,218.0952380952381 703.7196765498652,260.0 705.6603773584906,260.0 707.6010781671159,228.57142857142858 709.5417789757413,155.23809523809524 711.4824797843665,218.0952380952381 713.4231805929919,218.0952380952381 715.3638814016173,134.28571428571428 717.3045822102426,239.04761904761904 719.2452830188679,239.04761904761904 721.1859838274933,218.0952380952381 723.1266846361186,123.8095238095238 725.067385444744,218.0952380952381 727.0080862533692,249.52380952380952 728.9487870619946,239.04761904761904 730.88948787062,40.0 732.8301886792453,197.14285714285714 734.7708894878706,197.14285714285714 736.711590296496,186.66666666666669 738.6522911051213,207.61904761904762 740.5929919137467,186.66666666666669 742.5336927223719,218.0952380952381 744.4743935309973,239.04761904761904 746.4150943396227,81.9047619047619 748.355795148248,197.14285714285714 750.2964959568733,239.04761904761904 752.2371967654987,249.52380952380952 754.177897574124,228.57142857142858 756.1185983827494,165.71428571428572 758.0592991913746,134.28571428571428"/>
<polyline class="pred" points="40.0,260.0 41.94070080862534,260.0 43.881401617250674,260.0 45.82210242587601,260.0 47.76280323450135,228.57142857142858 49.703504043126685,205.52380952380952 51.64420485175202,209.71428571428572 53.58490566037736,209.71428571428572 55.525606469002696,216.0 57.46630727762803,216.0 59.40700808625337,228.57142857142858 61.34770889487871,216.0 63.288409703504044,220.1904761904762 65.22911051212938,220.1904761904762 67.16981132075472,230.66666666666666 69.11051212938006,245.33333333333334 71.05121293800539,260.0 72.99191374663073,260.0 74.93261455525607,260.0 76.8733153638814,260.0 78.81401617250674,260.0 80.75471698113208,260.0 82.69541778975741,260.0 84.63611859838275,260.0 86.57681940700809,260.0 88.51752021563343,260.0 90.45822102425876,260.0 92.3989218328841,260.0 94.33962264150944,260.0 96.28032345013477,260.0 98.22102425876011,260.0 100.16172506738545,260.0 102.10242587601078,260.0 104.04312668463612,260.0 105.98382749326146,260.0 107.9245283018868,260.0 109.86522911051213,260.0 111.80592991913747,260.0 113.7466307277628,260.0 115.68733153638814,260.0 117.62803234501348,260.0 119.56873315363882,260.0 121.50943396226415,260.0 123.45013477088949,260.0 125.39083557951483,260.0 127.33153638814017,260.0 129.2722371967655,260.0 131.21293800539084,260.0 133.15363881401618,260.0 135.0943396226415,260.0 137.03504043126685,260.0 138.9757412398922,260.0 140.91644204851752,260.0 142.85714285714286,260.0 144.7978436657682,260.0 146.73854447439354,260.0 148.67924528301887,260.0 150.6199460916442,260.0 152.56064690026955,260.0 154.50134770889488,260.0 156.44204851752022,260.0 158.38274932614556,260.0 160.3234501347709,260.0 162.26415094339623,260.0 164.20485175202157,260.0 166.1455525606469,260.0 168.08625336927224,260.0 170.02695417789758,260.0 171.96765498652292,260.0 173.90835579514825,260.0 175.8490566037736,260.0 177.78975741239893,260.0 179.73045822102426,260.0 181.6711590296496,260.0 183.61185983827494,260.0 185.55256064690028,260.0 187.4932614555256,260.0 189.43396226415095,260.0 191.3746630727763,260.0 193.31536388140162,260.0 195.25606469002696,260.0 197.1967654986523,260.0 199.13746630727763,260.0 201.07816711590297,260.0 203.0188679245283,260.0 204.95956873315365,260.0 206.90026954177898,260.0 208.84097035040432,260.0 210.78167115902966,260.0 212.722371967655,255.8095238095238 214.66307277628033,255.8095238095238 216.60377358490567,255.8095238095238 218.544474393531,255.8095238095238 220.48517520215634,255.8095238095238 222.42587601078168,260.0 224.36657681940702,260.0 226.30727762803235,260.0 228.2479784366577,260.0 230.18867924528303,260.0 232.12938005390836,260.0 234.0700808625337,260.0 236.01078167115904,260.0 237.95148247978437,260.0 239.8921832884097,260.0 241.83288409703505,260.0 243.77358490566039,260.0 245.71428571428572,260.0 247.65498652291106,260.0 249.5956873315364,260.0 251.53638814016173,260.0 253.47708894878707,260.0 255.4177897574124,260.0 257.35849056603774,260.0 259.2991913746631,260.0 261.2398921832884,260.0 263.1805929919137,260.0 265.1212938005391,260.0 267.06199460916446,260.0 269.00269541778977,260.0 270.9433962264151,260.0 272.88409703504044,260.0 274.8247978436658,260.0 276.7654986522911,260.0 278.7061994609164,260.0 280.6469002695418,260.0 282.58760107816715,260.0 284.52830188679246,260.0 286.46900269541777,260.0 288.40970350404314,260.0 290.3504043126685,260.0 292.2911051212938,260.0 294.2318059299191,260.0 296.1725067385445,260.0 298.1132075471698,260.0 300.05390835579516,260.0 301.99460916442047,260.0 303.93530997304583,260.0 305.87601078167114,260.0 307.8167115902965,260.0 309.7574123989218,257.9047619047619 311.6981132075472,257.9047619047619 313.6388140161725,257.9047619047619 315.57951482479785,257.9047619047619 317.52021563342316,257.9047619047619 319.46091644204853,260.0 321.40161725067384,260.0 323.3423180592992,260.0 325.2830188679245,260.0 327.2237196765499,260.0 329.1644204851752,260.0 331.10512129380055,260.0 333.04582210242586,260.0 334.9865229110512,260.0 336.92722371967653,260.0 338.8679245283019,260.0 340.8086253369272,260.0 342.7493261455526,260.0 344.6900269541779,260.0 346.63072776280325,260.0 348.57142857142856,260.0 350.5121293800539,260.0 352.45283018867923,260.0 354.3935309973046,260.0 356.3342318059299,260.0 358.27493261455527,260.0 360.2156334231806,260.0 362.15633423180594,260.0 364.09703504043125,260.0 366.0377358490566,260.0 367.9784366576819,260.0 369.9191374663073,260.0 371.8598382749326,260.0 373.80053908355796,260.0 375.7412398921833,260.0 377.68194070080864,260.0 379.62264150943395,260.0 381.5633423180593,260.0 383.5040431266846,260.0 385.44474393531,260.0 387.3854447439353,260.0 389.32614555256066,260.0 391.26684636118597,260.0 393.20754716981133,260.0 395.14824797843664,260.0 397.088948787062,260.0 399.0296495956873,260.0 400.9703504043127,260.0 402.911051212938,260.0 404.85175202156336,260.0 406.79245283018867,260.0 408.73315363881403,260.0 410.67385444743934,260.0 412.6145552560647,260.0 414.55525606469,260.0 416.4959568733154,260.0 418.4366576819407,260.0 420.37735849056605,260.0 422.31805929919136,260.0 424.2587601078167,260.0 426.19946091644204,260.0 428.1401617250674,260.0 430.0808625336927,260.0 432.0215633423181,260.0 433.9622641509434,260.0 435.90296495956875,260.0 437.84366576819406,260.0 439.7843665768194,260.0 441.72506738544473,260.0 443.6657681940701,260.0 445.6064690026954,260.0 447.54716981132077,260.0 449.4878706199461,260.0 451.42857142857144,260.0 453.36927223719675,260.0 455.3099730458221,260.0 457.2506738544474,260.0 459.1913746630728,260.0 461.1320754716981,260.0 463.07277628032347,260.0 465.0134770889488,260.0 466.95417789757414,260.0 468.89487870619945,260.0 470.8355795148248,260.0 472.7762803234501,260.0 474.7169811320755,260.0 476.6576819407008,260.0 478.59838274932616,260.0 480.53908355795147,260.0 482.47978436657684,260.0 484.42048517520215,260.0 486.3611859838275,260.0 488.3018867924528,260.0 490.2425876010782,260.0 492.1832884097035,260.0 494.12398921832886,260.0 496.06469002695417,260.0 498.00539083557953,260.0 499.94609164420484,260.0 501.8867924528302,260.0 503.8274932614555,260.0 505.7681940700809,260.0 507.7088948787062,260.0 509.64959568733155,260.0 511.59029649595686,260.0 513.5309973045822,260.0 515.4716981132076,260.0 517.4123989218328,260.0 519.3530997304582,260.0 521.2938005390836,260.0 523.2345013477088,260.0 525.1752021563343,260.0 527.1159029649596,260.0 529.0566037735849,260.0 530.9973045822103,260.0 532.9380053908355,260.0 534.8787061994609,260.0 536.8194070080863,260.0 538.7601078167115,260.0 540.700808625337,260.0 542.6415094339623,260.0 544.5822102425876,260.0 546.522911051213,260.0 548.4636118598382,260.0 550.4043126684636,260.0 552.345013477089,260.0 554.2857142857143,260.0 556.2264150943396,260.0 558.167115902965,260.0 560.1078167115903,260.0 562.0485175202157,260.0 563.9892183288409,260.0 565.9299191374663,260.0 567.8706199460917,260.0 569.811320754717,260.0 571.7520215633423,260.0 573.6927223719676,260.0 575.633423180593,260.0 577.5741239892184,260.0 579.5148247978436,260.0 581.455525606469,260.0 583.3962264150944,260.0 585.3369272237197,260.0 587.277628032345,260.0 589.2183288409703,260.0 591.1590296495957,260.0 593.0997304582211,260.0 595.0404312668463,260.0 596.9811320754717,260.0 598.9218328840971,260.0 600.8625336927224,260.0 602.8032345013477,260.0 604.743935309973,260.0 606.6846361185984,260.0 608.6253369272238,260.0 610.566037735849,260.0 612.5067385444744,260.0 614.4474393530998,260.0 616.3881401617251,260.0 618.3288409703504,260.0 620.2695417789757,260.0 622.2102425876011,260.0 624.1509433962265,260.0 626.0916442048517,260.0 628.0323450134771,260.0 629.9730458221024,260.0 631.9137466307278,260.0 633.8544474393531,260.0 635.7951482479784,260.0 637.7358490566038,260.0 639.6765498652292,260.0 641.6172506738544,260.0 643.5579514824798,260.0 645.4986522911051,260.0 647.4393530997305,260.0 649.3800539083558,260.0 651.3207547169811,260.0 653.2614555256065,260.0 655.2021563342319,260.0 657.1428571428571,260.0 659.0835579514825,260.0 661.0242587601078,260.0 662.9649595687332,260.0 664.9056603773585,260.0 666.8463611859838,260.0 668.7870619946092,260.0 670.7277628032346,260.0 672.6684636118598,260.0 674.6091644204852,260.0 676.5498652291105,260.0 678.4905660377359,260.0 680.4312668463612,260.0 682.3719676549865,260.0 684.3126684636119,260.0 686.2533692722373,260.0 688.1940700808625,260.0 690.1347708894879,257.9047619047619 692.0754716981132,257.9047619047619 694.0161725067386,257.9047619047619 695.9568733153639,257.9047619047619 697.8975741239892,257.9047619047619 699.8382749326146,251.61904761904762 701.77897574124,243.23809523809524 703.7196765498652,243.23809523809524 705.6603773584906,243.23809523809524 707.6010781671159,236.95238095238096 709.5417789757413,224.38095238095238 711.4824797843665,224.38095238095238 713.4231805929919,216.0 715.3638814016173,190.85714285714286 717.3045822102426,192.95238095238096 719.2452830188679,209.71428571428572 721.1859838274933,209.71428571428572 723.1266846361186,190.85714285714286 725.067385444744,207.61904761904762 727.0080862533692,209.71428571428572 728.9487870619946,209.71428571428572 730.88948787062,174.0952380952381 732.8301886792453,188.76190476190476 734.7708894878706,184.57142857142856 736.711590296496,172.0 738.6522911051213,165.71428571428572 740.5929919137467,195.04761904761904 742.5336927223719,199.23809523809524 744.4743935309973,207.61904761904762 746.4150943396227,186.66666666666669 748.355795148248,184.57142857142856 750.2964959568733,195.04761904761904 752.2371967654987,201.33333333333334 754.177897574124,199.23809523809524 756.1185983827494,216.0 758.0592991913746,203.42857142857142"/>

<text x="20" y="30" fill="#c084fc" font-size="16">
🔥 Streak: 26 days
</text>

</svg>
