
<svg width="800" height="300" xmlns="http://www.w3.org/2000/svg">

<defs>
  <linearGradient id="grad" x1="0%" y1="0%" x2="100%" y2="0%">
    <stop offset="0%" stop-color="#7df9ff"/>
    <stop offset="100%" stop-color="#ff6ec7"/>
  </linearGradient>
</defs>


<style>
.title { fill: #c084fc; font-size: 16px; font-weight: 600; }
.label { fill: #9ca3af; font-size: 12px; }
.card { fill: #0d1117; stroke: #1f2937; stroke-width: 1; }
.main { stroke: url(#grad); stroke-width: 3; fill: none; filter: drop-shadow(0 0 6px #7df9ff); }
.shadow { stroke: #ff6ec7; stroke-width: 3; opacity: 0.25; fill: none; filter: blur(4px); }
.pred { stroke: #ffffff; stroke-width: 2; fill: none; stroke-dasharray: 5,5; opacity: 0.4; }
</style>


<rect x="5" y="5" width="790" height="290" rx="12" class="card"/>

<text class="title" x="24" y="40">📈 Contribution Trend</text>
<line x1="20" y1="50" x2="780" y2="50" stroke="#1f2937"/>

<rect x="40.0" y="260" width="24.0" height="6" fill="#ff6ec7" opacity="0.2894736842105263" /><rect x="64.0" y="260" width="24.0" height="6" fill="#ff6ec7" opacity="0.1631578947368421" /><rect x="88.0" y="260" width="24.0" height="6" fill="#ff6ec7" opacity="0.1631578947368421" /><rect x="112.0" y="260" width="24.0" height="6" fill="#ff6ec7" opacity="0.1631578947368421" /><rect x="136.0" y="260" width="24.0" height="6" fill="#ff6ec7" opacity="0.1631578947368421" /><rect x="160.0" y="260" width="24.0" height="6" fill="#ff6ec7" opacity="0.13157894736842105" /><rect x="184.0" y="260" width="24.0" height="6" fill="#ff6ec7" opacity="0.1631578947368421" /><rect x="208.0" y="260" width="24.0" height="6" fill="#ff6ec7" opacity="0.13157894736842105" /><rect x="232.0" y="260" width="24.0" height="6" fill="#ff6ec7" opacity="0.2263157894736842" /><rect x="256.0" y="260" width="24.0" height="6" fill="#ff6ec7" opacity="0.13157894736842105" /><rect x="280.0" y="260" width="24.0" height="6" fill="#ff6ec7" opacity="0.2263157894736842" /><rect x="304.0" y="260" width="24.0" height="6" fill="#ff6ec7" opacity="0.13157894736842105" /><rect x="328.0" y="260" width="24.0" height="6" fill="#ff6ec7" opacity="0.1631578947368421" /><rect x="352.0" y="260" width="24.0" height="6" fill="#ff6ec7" opacity="0.13157894736842105" /><rect x="376.0" y="260" width="24.0" height="6" fill="#ff6ec7" opacity="0.2263157894736842" /><rect x="400.0" y="260" width="24.0" height="6" fill="#ff6ec7" opacity="0.13157894736842105" /><rect x="424.0" y="260" width="24.0" height="6" fill="#ff6ec7" opacity="0.13157894736842105" /><rect x="448.0" y="260" width="24.0" height="6" fill="#ff6ec7" opacity="0.13157894736842105" /><rect x="472.0" y="260" width="24.0" height="6" fill="#ff6ec7" opacity="0.13157894736842105" /><rect x="496.0" y="260" width="24.0" height="6" fill="#ff6ec7" opacity="0.13157894736842105" /><rect x="520.0" y="260" width="24.0" height="6" fill="#ff6ec7" opacity="0.13157894736842105" /><rect x="544.0" y="260" width="24.0" height="6" fill="#ff6ec7" opacity="0.4157894736842105" /><rect x="568.0" y="260" width="24.0" height="6" fill="#ff6ec7" opacity="0.3526315789473684" /><rect x="592.0" y="260" width="24.0" height="6" fill="#ff6ec7" opacity="0.7" /><rect x="616.0" y="260" width="24.0" height="6" fill="#ff6ec7" opacity="0.2894736842105263" /><rect x="640.0" y="260" width="24.0" height="6" fill="#ff6ec7" opacity="0.19473684210526315" /><rect x="664.0" y="260" width="24.0" height="6" fill="#ff6ec7" opacity="0.19473684210526315" /><rect x="688.0" y="260" width="24.0" height="6" fill="#ff6ec7" opacity="0.2894736842105263" /><rect x="712.0" y="260" width="24.0" height="6" fill="#ff6ec7" opacity="0.38421052631578945" /><rect x="736.0" y="260" width="24.0" height="6" fill="#ff6ec7" opacity="0.38421052631578945" />

<!-- TODAY LINE -->
<line x1="736.0" 
      y1="60" 
      x2="736.0" 
      y2="260"
      stroke="#ff6ec7"
      stroke-opacity="0.3"
      stroke-dasharray="4,4"/>

<text x="736.0" y="50"
      fill="#ff6ec7" font-size="10" text-anchor="middle">
Today
</text>

<polyline class="shadow" points="46.0,200.5263157894737 70.0,246.8421052631579 94.0,246.8421052631579 118.0,246.8421052631579 142.0,246.8421052631579 166.0,258.42105263157896 190.0,246.8421052631579 214.0,258.42105263157896 238.0,223.68421052631578 262.0,258.42105263157896 286.0,223.68421052631578 310.0,258.42105263157896 334.0,246.8421052631579 358.0,258.42105263157896 382.0,223.68421052631578 406.0,258.42105263157896 430.0,258.42105263157896 454.0,258.42105263157896 478.0,258.42105263157896 502.0,258.42105263157896 526.0,258.42105263157896 550.0,154.21052631578948 574.0,177.3684210526316 598.0,50.0 622.0,200.5263157894737 646.0,235.26315789473685 670.0,235.26315789473685 694.0,200.5263157894737 718.0,165.78947368421052 742.0,165.78947368421052"/>
<polyline class="main" points="40.0,190.5263157894737 64.0,236.8421052631579 88.0,236.8421052631579 112.0,236.8421052631579 136.0,236.8421052631579 160.0,248.42105263157896 184.0,236.8421052631579 208.0,248.42105263157896 232.0,213.68421052631578 256.0,248.42105263157896 280.0,213.68421052631578 304.0,248.42105263157896 328.0,236.8421052631579 352.0,248.42105263157896 376.0,213.68421052631578 400.0,248.42105263157896 424.0,248.42105263157896 448.0,248.42105263157896 472.0,248.42105263157896 496.0,248.42105263157896 520.0,248.42105263157896 544.0,144.21052631578948 568.0,167.3684210526316 592.0,40.0 616.0,190.5263157894737 640.0,225.26315789473685 664.0,225.26315789473685 688.0,190.5263157894737 712.0,155.78947368421052 736.0,155.78947368421052"/>
<polyline class="pred" points="40.0,260.0 64.0,260.0 88.0,260.0 112.0,260.0 136.0,227.57894736842104 160.0,239.1578947368421 184.0,239.1578947368421 208.0,241.4736842105263 232.0,236.8421052631579 256.0,239.1578947368421 280.0,232.21052631578948 304.0,234.52631578947367 328.0,232.21052631578948 352.0,239.1578947368421 376.0,232.21052631578948 400.0,239.1578947368421 424.0,239.1578947368421 448.0,241.4736842105263 472.0,241.4736842105263 496.0,248.42105263157896 520.0,248.42105263157896 544.0,227.57894736842104 568.0,211.36842105263156 592.0,169.68421052631578 616.0,158.10526315789474 640.0,153.47368421052633 664.0,169.68421052631578 688.0,174.31578947368422 712.0,197.4736842105263 736.0,190.5263157894737"/>

<!-- 🔥 ADD CIRCLES HERE -->
<circle cx="40.0" cy="190.5263157894737" r="3" fill="white" stroke="#ff6ec7" stroke-width="1"/><circle cx="64.0" cy="236.8421052631579" r="3" fill="white" stroke="#ff6ec7" stroke-width="1"/><circle cx="88.0" cy="236.8421052631579" r="3" fill="white" stroke="#ff6ec7" stroke-width="1"/><circle cx="112.0" cy="236.8421052631579" r="3" fill="white" stroke="#ff6ec7" stroke-width="1"/><circle cx="136.0" cy="236.8421052631579" r="3" fill="white" stroke="#ff6ec7" stroke-width="1"/><circle cx="160.0" cy="248.42105263157896" r="3" fill="white" stroke="#ff6ec7" stroke-width="1"/><circle cx="184.0" cy="236.8421052631579" r="3" fill="white" stroke="#ff6ec7" stroke-width="1"/><circle cx="208.0" cy="248.42105263157896" r="3" fill="white" stroke="#ff6ec7" stroke-width="1"/><circle cx="232.0" cy="213.68421052631578" r="3" fill="white" stroke="#ff6ec7" stroke-width="1"/><circle cx="256.0" cy="248.42105263157896" r="3" fill="white" stroke="#ff6ec7" stroke-width="1"/><circle cx="280.0" cy="213.68421052631578" r="3" fill="white" stroke="#ff6ec7" stroke-width="1"/><circle cx="304.0" cy="248.42105263157896" r="3" fill="white" stroke="#ff6ec7" stroke-width="1"/><circle cx="328.0" cy="236.8421052631579" r="3" fill="white" stroke="#ff6ec7" stroke-width="1"/><circle cx="352.0" cy="248.42105263157896" r="3" fill="white" stroke="#ff6ec7" stroke-width="1"/><circle cx="376.0" cy="213.68421052631578" r="3" fill="white" stroke="#ff6ec7" stroke-width="1"/><circle cx="400.0" cy="248.42105263157896" r="3" fill="white" stroke="#ff6ec7" stroke-width="1"/><circle cx="424.0" cy="248.42105263157896" r="3" fill="white" stroke="#ff6ec7" stroke-width="1"/><circle cx="448.0" cy="248.42105263157896" r="3" fill="white" stroke="#ff6ec7" stroke-width="1"/><circle cx="472.0" cy="248.42105263157896" r="3" fill="white" stroke="#ff6ec7" stroke-width="1"/><circle cx="496.0" cy="248.42105263157896" r="3" fill="white" stroke="#ff6ec7" stroke-width="1"/><circle cx="520.0" cy="248.42105263157896" r="3" fill="white" stroke="#ff6ec7" stroke-width="1"/><circle cx="544.0" cy="144.21052631578948" r="3" fill="white" stroke="#ff6ec7" stroke-width="1"/><circle cx="568.0" cy="167.3684210526316" r="3" fill="white" stroke="#ff6ec7" stroke-width="1"/><circle cx="592.0" cy="40.0" r="3" fill="white" stroke="#ff6ec7" stroke-width="1"/><circle cx="616.0" cy="190.5263157894737" r="3" fill="white" stroke="#ff6ec7" stroke-width="1"/><circle cx="640.0" cy="225.26315789473685" r="3" fill="white" stroke="#ff6ec7" stroke-width="1"/><circle cx="664.0" cy="225.26315789473685" r="3" fill="white" stroke="#ff6ec7" stroke-width="1"/><circle cx="688.0" cy="190.5263157894737" r="3" fill="white" stroke="#ff6ec7" stroke-width="1"/><circle cx="712.0" cy="155.78947368421052" r="3" fill="white" stroke="#ff6ec7" stroke-width="1"/><circle cx="736.0" cy="155.78947368421052" r="3" fill="white" stroke="#ff6ec7" stroke-width="1"/>

<!-- subtle hover illusion -->
<circle cx="736.0" cy="155.78947368421052" r="5" fill="#ff6ec7" opacity="0.8">
  <animate attributeName="r" values="4;7;4" dur="2s" repeatCount="indefinite"/>
</circle>

<text class="label" x="24" y="70">
📅 May 06 → Jun 04
</text>

</svg>
