
<svg width="800" height="300" xmlns="http://www.w3.org/2000/svg">

<defs>
  <linearGradient id="grad" x1="0%" y1="0%" x2="100%" y2="0%">
    <stop offset="0%" stop-color="#7df9ff"/>
    <stop offset="100%" stop-color="#ff6ec7"/>
  </linearGradient>

  <linearGradient id="floorGrad" x1="0%" y1="0%" x2="0%" y2="100%">
    <stop offset="0%" stop-color="#ff6ec7" stop-opacity="0.3"/>
    <stop offset="100%" stop-color="#0d1117" stop-opacity="0"/>
  </linearGradient>

  <filter id="blur">
    <feGaussianBlur stdDeviation="4"/>
  </filter>
</defs>

<style>
.main {
    stroke: url(#grad);
    stroke-width: 3;
    fill: none;
    filter: drop-shadow(0 0 6px #7df9ff);
}

.shadow {
    stroke: #ff6ec7;
    stroke-width: 3;
    opacity: 0.25;
    fill: none;
    filter: url(#blur);
}

.floor {
    fill: url(#floorGrad);
}
</style>

<rect width="100%" height="100%" fill="#0d1117"/>

<!-- 🔥 shadow layer -->
<polyline class="shadow" points="46.0,249.04761904761904 47.94070080862534,238.57142857142858 49.881401617250674,249.04761904761904 51.82210242587601,238.57142857142858 53.76280323450135,217.61904761904762 55.703504043126685,133.8095238095238 57.64420485175202,259.5238095238095 59.58490566037736,249.04761904761904 61.525606469002696,270.0 63.46630727762803,217.61904761904762 65.40700808625337,196.66666666666669 67.3477088948787,196.66666666666669 69.28840970350404,270.0 71.22911051212938,270.0 73.16981132075472,270.0 75.11051212938006,270.0 77.05121293800539,270.0 78.99191374663073,270.0 80.93261455525607,270.0 82.8733153638814,270.0 84.81401617250674,270.0 86.75471698113208,270.0 88.69541778975741,270.0 90.63611859838275,270.0 92.57681940700809,270.0 94.51752021563343,270.0 96.45822102425876,270.0 98.3989218328841,270.0 100.33962264150944,270.0 102.28032345013477,270.0 104.22102425876011,270.0 106.16172506738545,270.0 108.10242587601078,270.0 110.04312668463612,270.0 111.98382749326146,270.0 113.9245283018868,270.0 115.86522911051213,270.0 117.80592991913747,270.0 119.7466307277628,270.0 121.68733153638814,270.0 123.62803234501348,270.0 125.56873315363882,270.0 127.50943396226415,270.0 129.4501347708895,270.0 131.39083557951483,270.0 133.33153638814017,270.0 135.2722371967655,270.0 137.21293800539084,270.0 139.15363881401618,270.0 141.0943396226415,270.0 143.03504043126685,270.0 144.9757412398922,270.0 146.91644204851752,270.0 148.85714285714286,270.0 150.7978436657682,270.0 152.73854447439354,270.0 154.67924528301887,270.0 156.6199460916442,270.0 158.56064690026955,270.0 160.50134770889488,270.0 162.44204851752022,270.0 164.38274932614556,270.0 166.3234501347709,270.0 168.26415094339623,270.0 170.20485175202157,270.0 172.1455525606469,270.0 174.08625336927224,270.0 176.02695417789758,270.0 177.96765498652292,270.0 179.90835579514825,270.0 181.8490566037736,270.0 183.78975741239893,270.0 185.73045822102426,270.0 187.6711590296496,270.0 189.61185983827494,270.0 191.55256064690028,270.0 193.4932614555256,270.0 195.43396226415095,270.0 197.3746630727763,270.0 199.31536388140162,270.0 201.25606469002696,270.0 203.1967654986523,270.0 205.13746630727763,270.0 207.07816711590297,270.0 209.0188679245283,270.0 210.95956873315365,270.0 212.90026954177898,270.0 214.84097035040432,270.0 216.78167115902966,270.0 218.722371967655,249.04761904761904 220.66307277628033,270.0 222.60377358490567,270.0 224.544474393531,270.0 226.48517520215634,270.0 228.42587601078168,270.0 230.36657681940702,270.0 232.30727762803235,270.0 234.2479784366577,270.0 236.18867924528303,270.0 238.12938005390836,270.0 240.0700808625337,270.0 242.01078167115904,270.0 243.95148247978437,270.0 245.8921832884097,270.0 247.83288409703505,270.0 249.77358490566039,270.0 251.71428571428572,270.0 253.65498652291106,270.0 255.5956873315364,270.0 257.53638814016176,270.0 259.47708894878707,270.0 261.4177897574124,270.0 263.35849056603774,270.0 265.2991913746631,270.0 267.2398921832884,270.0 269.1805929919137,270.0 271.1212938005391,270.0 273.06199460916446,270.0 275.00269541778977,270.0 276.9433962264151,270.0 278.88409703504044,270.0 280.8247978436658,270.0 282.7654986522911,270.0 284.7061994609164,270.0 286.6469002695418,270.0 288.58760107816715,270.0 290.52830188679246,270.0 292.46900269541777,270.0 294.40970350404314,270.0 296.3504043126685,270.0 298.2911051212938,270.0 300.2318059299191,270.0 302.1725067385445,270.0 304.1132075471698,270.0 306.05390835579516,270.0 307.99460916442047,270.0 309.93530997304583,270.0 311.87601078167114,270.0 313.8167115902965,270.0 315.7574123989218,259.5238095238095 317.6981132075472,270.0 319.6388140161725,270.0 321.57951482479785,270.0 323.52021563342316,270.0 325.46091644204853,270.0 327.40161725067384,270.0 329.3423180592992,270.0 331.2830188679245,270.0 333.2237196765499,270.0 335.1644204851752,270.0 337.10512129380055,270.0 339.04582210242586,270.0 340.9865229110512,270.0 342.92722371967653,270.0 344.8679245283019,270.0 346.8086253369272,270.0 348.7493261455526,270.0 350.6900269541779,270.0 352.63072776280325,270.0 354.57142857142856,270.0 356.5121293800539,270.0 358.45283018867923,270.0 360.3935309973046,270.0 362.3342318059299,270.0 364.27493261455527,270.0 366.2156334231806,270.0 368.15633423180594,270.0 370.09703504043125,270.0 372.0377358490566,270.0 373.9784366576819,270.0 375.9191374663073,270.0 377.8598382749326,270.0 379.80053908355796,270.0 381.7412398921833,270.0 383.68194070080864,270.0 385.62264150943395,270.0 387.5633423180593,270.0 389.5040431266846,270.0 391.44474393531,270.0 393.3854447439353,270.0 395.32614555256066,270.0 397.26684636118597,270.0 399.20754716981133,270.0 401.14824797843664,270.0 403.088948787062,270.0 405.0296495956873,270.0 406.9703504043127,270.0 408.911051212938,270.0 410.85175202156336,270.0 412.79245283018867,270.0 414.73315363881403,270.0 416.67385444743934,270.0 418.6145552560647,270.0 420.55525606469,270.0 422.4959568733154,270.0 424.4366576819407,270.0 426.37735849056605,270.0 428.31805929919136,270.0 430.2587601078167,270.0 432.19946091644204,270.0 434.1401617250674,270.0 436.0808625336927,270.0 438.0215633423181,270.0 439.9622641509434,270.0 441.90296495956875,270.0 443.84366576819406,270.0 445.7843665768194,270.0 447.72506738544473,270.0 449.6657681940701,270.0 451.6064690026954,270.0 453.54716981132077,270.0 455.4878706199461,270.0 457.42857142857144,270.0 459.36927223719675,270.0 461.3099730458221,270.0 463.2506738544474,270.0 465.1913746630728,270.0 467.1320754716981,270.0 469.07277628032347,270.0 471.0134770889488,270.0 472.95417789757414,270.0 474.89487870619945,270.0 476.8355795148248,270.0 478.7762803234501,270.0 480.7169811320755,270.0 482.6576819407008,270.0 484.59838274932616,270.0 486.53908355795147,270.0 488.47978436657684,270.0 490.42048517520215,270.0 492.3611859838275,270.0 494.3018867924528,270.0 496.2425876010782,270.0 498.1832884097035,270.0 500.12398921832886,270.0 502.06469002695417,270.0 504.00539083557953,270.0 505.94609164420484,270.0 507.8867924528302,270.0 509.8274932614555,270.0 511.7681940700809,270.0 513.7088948787061,270.0 515.6495956873316,270.0 517.5902964959569,270.0 519.5309973045822,270.0 521.4716981132076,270.0 523.4123989218328,270.0 525.3530997304582,270.0 527.2938005390836,270.0 529.2345013477088,270.0 531.1752021563343,270.0 533.1159029649596,270.0 535.0566037735849,270.0 536.9973045822103,270.0 538.9380053908355,270.0 540.8787061994609,270.0 542.8194070080863,270.0 544.7601078167115,270.0 546.700808625337,270.0 548.6415094339623,270.0 550.5822102425876,270.0 552.522911051213,270.0 554.4636118598382,270.0 556.4043126684636,270.0 558.345013477089,270.0 560.2857142857143,270.0 562.2264150943396,270.0 564.167115902965,270.0 566.1078167115903,270.0 568.0485175202157,270.0 569.9892183288409,270.0 571.9299191374663,270.0 573.8706199460917,270.0 575.811320754717,270.0 577.7520215633423,270.0 579.6927223719676,270.0 581.633423180593,270.0 583.5741239892184,270.0 585.5148247978436,270.0 587.455525606469,270.0 589.3962264150944,270.0 591.3369272237197,270.0 593.277628032345,270.0 595.2183288409703,270.0 597.1590296495957,270.0 599.0997304582211,270.0 601.0404312668463,270.0 602.9811320754717,270.0 604.9218328840971,270.0 606.8625336927224,270.0 608.8032345013477,270.0 610.743935309973,270.0 612.6846361185984,270.0 614.6253369272238,270.0 616.566037735849,270.0 618.5067385444744,270.0 620.4474393530998,270.0 622.3881401617251,270.0 624.3288409703504,270.0 626.2695417789757,270.0 628.2102425876011,270.0 630.1509433962265,270.0 632.0916442048517,270.0 634.0323450134771,270.0 635.9730458221024,270.0 637.9137466307278,270.0 639.8544474393531,270.0 641.7951482479784,270.0 643.7358490566038,270.0 645.6765498652292,270.0 647.6172506738544,270.0 649.5579514824798,270.0 651.4986522911051,270.0 653.4393530997305,270.0 655.3800539083558,270.0 657.3207547169811,270.0 659.2614555256065,270.0 661.2021563342319,270.0 663.1428571428571,270.0 665.0835579514825,270.0 667.0242587601078,270.0 668.9649595687332,270.0 670.9056603773585,270.0 672.8463611859838,270.0 674.7870619946092,270.0 676.7277628032346,270.0 678.6684636118598,270.0 680.6091644204852,270.0 682.5498652291105,270.0 684.4905660377359,270.0 686.4312668463612,270.0 688.3719676549865,270.0 690.3126684636119,270.0 692.2533692722373,270.0 694.1940700808625,270.0 696.1347708894879,259.5238095238095 698.0754716981132,270.0 700.0161725067386,270.0 701.9568733153639,270.0 703.8975741239892,270.0 705.8382749326146,228.0952380952381 707.77897574124,228.0952380952381 709.7196765498652,270.0 711.6603773584906,270.0 713.6010781671159,238.57142857142858 715.5417789757413,165.23809523809524 717.4824797843665,228.0952380952381 719.4231805929919,228.0952380952381 721.3638814016173,144.28571428571428 723.3045822102426,249.04761904761904 725.2452830188679,249.04761904761904 727.1859838274933,228.0952380952381 729.1266846361186,133.8095238095238 731.067385444744,228.0952380952381 733.0080862533692,259.5238095238095 734.9487870619946,249.04761904761904 736.88948787062,50.0 738.8301886792453,207.14285714285714 740.7708894878706,207.14285714285714 742.711590296496,196.66666666666669 744.6522911051213,217.61904761904762 746.5929919137467,196.66666666666669 748.5336927223719,228.0952380952381 750.4743935309973,249.04761904761904 752.4150943396227,91.9047619047619 754.355795148248,207.14285714285714 756.2964959568733,249.04761904761904 758.2371967654987,259.5238095238095 760.177897574124,238.57142857142858 762.1185983827494,175.71428571428572 764.0592991913746,112.85714285714286"/>

<!-- 🔥 main graph -->
<polyline class="main" points="40.0,239.04761904761904 41.94070080862534,228.57142857142858 43.881401617250674,239.04761904761904 45.82210242587601,228.57142857142858 47.76280323450135,207.61904761904762 49.703504043126685,123.8095238095238 51.64420485175202,249.52380952380952 53.58490566037736,239.04761904761904 55.525606469002696,260.0 57.46630727762803,207.61904761904762 59.40700808625337,186.66666666666669 61.34770889487871,186.66666666666669 63.288409703504044,260.0 65.22911051212938,260.0 67.16981132075472,260.0 69.11051212938006,260.0 71.05121293800539,260.0 72.99191374663073,260.0 74.93261455525607,260.0 76.8733153638814,260.0 78.81401617250674,260.0 80.75471698113208,260.0 82.69541778975741,260.0 84.63611859838275,260.0 86.57681940700809,260.0 88.51752021563343,260.0 90.45822102425876,260.0 92.3989218328841,260.0 94.33962264150944,260.0 96.28032345013477,260.0 98.22102425876011,260.0 100.16172506738545,260.0 102.10242587601078,260.0 104.04312668463612,260.0 105.98382749326146,260.0 107.9245283018868,260.0 109.86522911051213,260.0 111.80592991913747,260.0 113.7466307277628,260.0 115.68733153638814,260.0 117.62803234501348,260.0 119.56873315363882,260.0 121.50943396226415,260.0 123.45013477088949,260.0 125.39083557951483,260.0 127.33153638814017,260.0 129.2722371967655,260.0 131.21293800539084,260.0 133.15363881401618,260.0 135.0943396226415,260.0 137.03504043126685,260.0 138.9757412398922,260.0 140.91644204851752,260.0 142.85714285714286,260.0 144.7978436657682,260.0 146.73854447439354,260.0 148.67924528301887,260.0 150.6199460916442,260.0 152.56064690026955,260.0 154.50134770889488,260.0 156.44204851752022,260.0 158.38274932614556,260.0 160.3234501347709,260.0 162.26415094339623,260.0 164.20485175202157,260.0 166.1455525606469,260.0 168.08625336927224,260.0 170.02695417789758,260.0 171.96765498652292,260.0 173.90835579514825,260.0 175.8490566037736,260.0 177.78975741239893,260.0 179.73045822102426,260.0 181.6711590296496,260.0 183.61185983827494,260.0 185.55256064690028,260.0 187.4932614555256,260.0 189.43396226415095,260.0 191.3746630727763,260.0 193.31536388140162,260.0 195.25606469002696,260.0 197.1967654986523,260.0 199.13746630727763,260.0 201.07816711590297,260.0 203.0188679245283,260.0 204.95956873315365,260.0 206.90026954177898,260.0 208.84097035040432,260.0 210.78167115902966,260.0 212.722371967655,239.04761904761904 214.66307277628033,260.0 216.60377358490567,260.0 218.544474393531,260.0 220.48517520215634,260.0 222.42587601078168,260.0 224.36657681940702,260.0 226.30727762803235,260.0 228.2479784366577,260.0 230.18867924528303,260.0 232.12938005390836,260.0 234.0700808625337,260.0 236.01078167115904,260.0 237.95148247978437,260.0 239.8921832884097,260.0 241.83288409703505,260.0 243.77358490566039,260.0 245.71428571428572,260.0 247.65498652291106,260.0 249.5956873315364,260.0 251.53638814016173,260.0 253.47708894878707,260.0 255.4177897574124,260.0 257.35849056603774,260.0 259.2991913746631,260.0 261.2398921832884,260.0 263.1805929919137,260.0 265.1212938005391,260.0 267.06199460916446,260.0 269.00269541778977,260.0 270.9433962264151,260.0 272.88409703504044,260.0 274.8247978436658,260.0 276.7654986522911,260.0 278.7061994609164,260.0 280.6469002695418,260.0 282.58760107816715,260.0 284.52830188679246,260.0 286.46900269541777,260.0 288.40970350404314,260.0 290.3504043126685,260.0 292.2911051212938,260.0 294.2318059299191,260.0 296.1725067385445,260.0 298.1132075471698,260.0 300.05390835579516,260.0 301.99460916442047,260.0 303.93530997304583,260.0 305.87601078167114,260.0 307.8167115902965,260.0 309.7574123989218,249.52380952380952 311.6981132075472,260.0 313.6388140161725,260.0 315.57951482479785,260.0 317.52021563342316,260.0 319.46091644204853,260.0 321.40161725067384,260.0 323.3423180592992,260.0 325.2830188679245,260.0 327.2237196765499,260.0 329.1644204851752,260.0 331.10512129380055,260.0 333.04582210242586,260.0 334.9865229110512,260.0 336.92722371967653,260.0 338.8679245283019,260.0 340.8086253369272,260.0 342.7493261455526,260.0 344.6900269541779,260.0 346.63072776280325,260.0 348.57142857142856,260.0 350.5121293800539,260.0 352.45283018867923,260.0 354.3935309973046,260.0 356.3342318059299,260.0 358.27493261455527,260.0 360.2156334231806,260.0 362.15633423180594,260.0 364.09703504043125,260.0 366.0377358490566,260.0 367.9784366576819,260.0 369.9191374663073,260.0 371.8598382749326,260.0 373.80053908355796,260.0 375.7412398921833,260.0 377.68194070080864,260.0 379.62264150943395,260.0 381.5633423180593,260.0 383.5040431266846,260.0 385.44474393531,260.0 387.3854447439353,260.0 389.32614555256066,260.0 391.26684636118597,260.0 393.20754716981133,260.0 395.14824797843664,260.0 397.088948787062,260.0 399.0296495956873,260.0 400.9703504043127,260.0 402.911051212938,260.0 404.85175202156336,260.0 406.79245283018867,260.0 408.73315363881403,260.0 410.67385444743934,260.0 412.6145552560647,260.0 414.55525606469,260.0 416.4959568733154,260.0 418.4366576819407,260.0 420.37735849056605,260.0 422.31805929919136,260.0 424.2587601078167,260.0 426.19946091644204,260.0 428.1401617250674,260.0 430.0808625336927,260.0 432.0215633423181,260.0 433.9622641509434,260.0 435.90296495956875,260.0 437.84366576819406,260.0 439.7843665768194,260.0 441.72506738544473,260.0 443.6657681940701,260.0 445.6064690026954,260.0 447.54716981132077,260.0 449.4878706199461,260.0 451.42857142857144,260.0 453.36927223719675,260.0 455.3099730458221,260.0 457.2506738544474,260.0 459.1913746630728,260.0 461.1320754716981,260.0 463.07277628032347,260.0 465.0134770889488,260.0 466.95417789757414,260.0 468.89487870619945,260.0 470.8355795148248,260.0 472.7762803234501,260.0 474.7169811320755,260.0 476.6576819407008,260.0 478.59838274932616,260.0 480.53908355795147,260.0 482.47978436657684,260.0 484.42048517520215,260.0 486.3611859838275,260.0 488.3018867924528,260.0 490.2425876010782,260.0 492.1832884097035,260.0 494.12398921832886,260.0 496.06469002695417,260.0 498.00539083557953,260.0 499.94609164420484,260.0 501.8867924528302,260.0 503.8274932614555,260.0 505.7681940700809,260.0 507.7088948787062,260.0 509.64959568733155,260.0 511.59029649595686,260.0 513.5309973045822,260.0 515.4716981132076,260.0 517.4123989218328,260.0 519.3530997304582,260.0 521.2938005390836,260.0 523.2345013477088,260.0 525.1752021563343,260.0 527.1159029649596,260.0 529.0566037735849,260.0 530.9973045822103,260.0 532.9380053908355,260.0 534.8787061994609,260.0 536.8194070080863,260.0 538.7601078167115,260.0 540.700808625337,260.0 542.6415094339623,260.0 544.5822102425876,260.0 546.522911051213,260.0 548.4636118598382,260.0 550.4043126684636,260.0 552.345013477089,260.0 554.2857142857143,260.0 556.2264150943396,260.0 558.167115902965,260.0 560.1078167115903,260.0 562.0485175202157,260.0 563.9892183288409,260.0 565.9299191374663,260.0 567.8706199460917,260.0 569.811320754717,260.0 571.7520215633423,260.0 573.6927223719676,260.0 575.633423180593,260.0 577.5741239892184,260.0 579.5148247978436,260.0 581.455525606469,260.0 583.3962264150944,260.0 585.3369272237197,260.0 587.277628032345,260.0 589.2183288409703,260.0 591.1590296495957,260.0 593.0997304582211,260.0 595.0404312668463,260.0 596.9811320754717,260.0 598.9218328840971,260.0 600.8625336927224,260.0 602.8032345013477,260.0 604.743935309973,260.0 606.6846361185984,260.0 608.6253369272238,260.0 610.566037735849,260.0 612.5067385444744,260.0 614.4474393530998,260.0 616.3881401617251,260.0 618.3288409703504,260.0 620.2695417789757,260.0 622.2102425876011,260.0 624.1509433962265,260.0 626.0916442048517,260.0 628.0323450134771,260.0 629.9730458221024,260.0 631.9137466307278,260.0 633.8544474393531,260.0 635.7951482479784,260.0 637.7358490566038,260.0 639.6765498652292,260.0 641.6172506738544,260.0 643.5579514824798,260.0 645.4986522911051,260.0 647.4393530997305,260.0 649.3800539083558,260.0 651.3207547169811,260.0 653.2614555256065,260.0 655.2021563342319,260.0 657.1428571428571,260.0 659.0835579514825,260.0 661.0242587601078,260.0 662.9649595687332,260.0 664.9056603773585,260.0 666.8463611859838,260.0 668.7870619946092,260.0 670.7277628032346,260.0 672.6684636118598,260.0 674.6091644204852,260.0 676.5498652291105,260.0 678.4905660377359,260.0 680.4312668463612,260.0 682.3719676549865,260.0 684.3126684636119,260.0 686.2533692722373,260.0 688.1940700808625,260.0 690.1347708894879,249.52380952380952 692.0754716981132,260.0 694.0161725067386,260.0 695.9568733153639,260.0 697.8975741239892,260.0 699.8382749326146,218.0952380952381 701.77897574124,218.0952380952381 703.7196765498652,260.0 705.6603773584906,260.0 707.6010781671159,228.57142857142858 709.5417789757413,155.23809523809524 711.4824797843665,218.0952380952381 713.4231805929919,218.0952380952381 715.3638814016173,134.28571428571428 717.3045822102426,239.04761904761904 719.2452830188679,239.04761904761904 721.1859838274933,218.0952380952381 723.1266846361186,123.8095238095238 725.067385444744,218.0952380952381 727.0080862533692,249.52380952380952 728.9487870619946,239.04761904761904 730.88948787062,40.0 732.8301886792453,197.14285714285714 734.7708894878706,197.14285714285714 736.711590296496,186.66666666666669 738.6522911051213,207.61904761904762 740.5929919137467,186.66666666666669 742.5336927223719,218.0952380952381 744.4743935309973,239.04761904761904 746.4150943396227,81.9047619047619 748.355795148248,197.14285714285714 750.2964959568733,239.04761904761904 752.2371967654987,249.52380952380952 754.177897574124,228.57142857142858 756.1185983827494,165.71428571428572 758.0592991913746,102.85714285714286"/>

<!-- 🔥 floor glow -->
<polygon class="floor" points="
40.0,239.04761904761904 41.94070080862534,228.57142857142858 43.881401617250674,239.04761904761904 45.82210242587601,228.57142857142858 47.76280323450135,207.61904761904762 49.703504043126685,123.8095238095238 51.64420485175202,249.52380952380952 53.58490566037736,239.04761904761904 55.525606469002696,260.0 57.46630727762803,207.61904761904762 59.40700808625337,186.66666666666669 61.34770889487871,186.66666666666669 63.288409703504044,260.0 65.22911051212938,260.0 67.16981132075472,260.0 69.11051212938006,260.0 71.05121293800539,260.0 72.99191374663073,260.0 74.93261455525607,260.0 76.8733153638814,260.0 78.81401617250674,260.0 80.75471698113208,260.0 82.69541778975741,260.0 84.63611859838275,260.0 86.57681940700809,260.0 88.51752021563343,260.0 90.45822102425876,260.0 92.3989218328841,260.0 94.33962264150944,260.0 96.28032345013477,260.0 98.22102425876011,260.0 100.16172506738545,260.0 102.10242587601078,260.0 104.04312668463612,260.0 105.98382749326146,260.0 107.9245283018868,260.0 109.86522911051213,260.0 111.80592991913747,260.0 113.7466307277628,260.0 115.68733153638814,260.0 117.62803234501348,260.0 119.56873315363882,260.0 121.50943396226415,260.0 123.45013477088949,260.0 125.39083557951483,260.0 127.33153638814017,260.0 129.2722371967655,260.0 131.21293800539084,260.0 133.15363881401618,260.0 135.0943396226415,260.0 137.03504043126685,260.0 138.9757412398922,260.0 140.91644204851752,260.0 142.85714285714286,260.0 144.7978436657682,260.0 146.73854447439354,260.0 148.67924528301887,260.0 150.6199460916442,260.0 152.56064690026955,260.0 154.50134770889488,260.0 156.44204851752022,260.0 158.38274932614556,260.0 160.3234501347709,260.0 162.26415094339623,260.0 164.20485175202157,260.0 166.1455525606469,260.0 168.08625336927224,260.0 170.02695417789758,260.0 171.96765498652292,260.0 173.90835579514825,260.0 175.8490566037736,260.0 177.78975741239893,260.0 179.73045822102426,260.0 181.6711590296496,260.0 183.61185983827494,260.0 185.55256064690028,260.0 187.4932614555256,260.0 189.43396226415095,260.0 191.3746630727763,260.0 193.31536388140162,260.0 195.25606469002696,260.0 197.1967654986523,260.0 199.13746630727763,260.0 201.07816711590297,260.0 203.0188679245283,260.0 204.95956873315365,260.0 206.90026954177898,260.0 208.84097035040432,260.0 210.78167115902966,260.0 212.722371967655,239.04761904761904 214.66307277628033,260.0 216.60377358490567,260.0 218.544474393531,260.0 220.48517520215634,260.0 222.42587601078168,260.0 224.36657681940702,260.0 226.30727762803235,260.0 228.2479784366577,260.0 230.18867924528303,260.0 232.12938005390836,260.0 234.0700808625337,260.0 236.01078167115904,260.0 237.95148247978437,260.0 239.8921832884097,260.0 241.83288409703505,260.0 243.77358490566039,260.0 245.71428571428572,260.0 247.65498652291106,260.0 249.5956873315364,260.0 251.53638814016173,260.0 253.47708894878707,260.0 255.4177897574124,260.0 257.35849056603774,260.0 259.2991913746631,260.0 261.2398921832884,260.0 263.1805929919137,260.0 265.1212938005391,260.0 267.06199460916446,260.0 269.00269541778977,260.0 270.9433962264151,260.0 272.88409703504044,260.0 274.8247978436658,260.0 276.7654986522911,260.0 278.7061994609164,260.0 280.6469002695418,260.0 282.58760107816715,260.0 284.52830188679246,260.0 286.46900269541777,260.0 288.40970350404314,260.0 290.3504043126685,260.0 292.2911051212938,260.0 294.2318059299191,260.0 296.1725067385445,260.0 298.1132075471698,260.0 300.05390835579516,260.0 301.99460916442047,260.0 303.93530997304583,260.0 305.87601078167114,260.0 307.8167115902965,260.0 309.7574123989218,249.52380952380952 311.6981132075472,260.0 313.6388140161725,260.0 315.57951482479785,260.0 317.52021563342316,260.0 319.46091644204853,260.0 321.40161725067384,260.0 323.3423180592992,260.0 325.2830188679245,260.0 327.2237196765499,260.0 329.1644204851752,260.0 331.10512129380055,260.0 333.04582210242586,260.0 334.9865229110512,260.0 336.92722371967653,260.0 338.8679245283019,260.0 340.8086253369272,260.0 342.7493261455526,260.0 344.6900269541779,260.0 346.63072776280325,260.0 348.57142857142856,260.0 350.5121293800539,260.0 352.45283018867923,260.0 354.3935309973046,260.0 356.3342318059299,260.0 358.27493261455527,260.0 360.2156334231806,260.0 362.15633423180594,260.0 364.09703504043125,260.0 366.0377358490566,260.0 367.9784366576819,260.0 369.9191374663073,260.0 371.8598382749326,260.0 373.80053908355796,260.0 375.7412398921833,260.0 377.68194070080864,260.0 379.62264150943395,260.0 381.5633423180593,260.0 383.5040431266846,260.0 385.44474393531,260.0 387.3854447439353,260.0 389.32614555256066,260.0 391.26684636118597,260.0 393.20754716981133,260.0 395.14824797843664,260.0 397.088948787062,260.0 399.0296495956873,260.0 400.9703504043127,260.0 402.911051212938,260.0 404.85175202156336,260.0 406.79245283018867,260.0 408.73315363881403,260.0 410.67385444743934,260.0 412.6145552560647,260.0 414.55525606469,260.0 416.4959568733154,260.0 418.4366576819407,260.0 420.37735849056605,260.0 422.31805929919136,260.0 424.2587601078167,260.0 426.19946091644204,260.0 428.1401617250674,260.0 430.0808625336927,260.0 432.0215633423181,260.0 433.9622641509434,260.0 435.90296495956875,260.0 437.84366576819406,260.0 439.7843665768194,260.0 441.72506738544473,260.0 443.6657681940701,260.0 445.6064690026954,260.0 447.54716981132077,260.0 449.4878706199461,260.0 451.42857142857144,260.0 453.36927223719675,260.0 455.3099730458221,260.0 457.2506738544474,260.0 459.1913746630728,260.0 461.1320754716981,260.0 463.07277628032347,260.0 465.0134770889488,260.0 466.95417789757414,260.0 468.89487870619945,260.0 470.8355795148248,260.0 472.7762803234501,260.0 474.7169811320755,260.0 476.6576819407008,260.0 478.59838274932616,260.0 480.53908355795147,260.0 482.47978436657684,260.0 484.42048517520215,260.0 486.3611859838275,260.0 488.3018867924528,260.0 490.2425876010782,260.0 492.1832884097035,260.0 494.12398921832886,260.0 496.06469002695417,260.0 498.00539083557953,260.0 499.94609164420484,260.0 501.8867924528302,260.0 503.8274932614555,260.0 505.7681940700809,260.0 507.7088948787062,260.0 509.64959568733155,260.0 511.59029649595686,260.0 513.5309973045822,260.0 515.4716981132076,260.0 517.4123989218328,260.0 519.3530997304582,260.0 521.2938005390836,260.0 523.2345013477088,260.0 525.1752021563343,260.0 527.1159029649596,260.0 529.0566037735849,260.0 530.9973045822103,260.0 532.9380053908355,260.0 534.8787061994609,260.0 536.8194070080863,260.0 538.7601078167115,260.0 540.700808625337,260.0 542.6415094339623,260.0 544.5822102425876,260.0 546.522911051213,260.0 548.4636118598382,260.0 550.4043126684636,260.0 552.345013477089,260.0 554.2857142857143,260.0 556.2264150943396,260.0 558.167115902965,260.0 560.1078167115903,260.0 562.0485175202157,260.0 563.9892183288409,260.0 565.9299191374663,260.0 567.8706199460917,260.0 569.811320754717,260.0 571.7520215633423,260.0 573.6927223719676,260.0 575.633423180593,260.0 577.5741239892184,260.0 579.5148247978436,260.0 581.455525606469,260.0 583.3962264150944,260.0 585.3369272237197,260.0 587.277628032345,260.0 589.2183288409703,260.0 591.1590296495957,260.0 593.0997304582211,260.0 595.0404312668463,260.0 596.9811320754717,260.0 598.9218328840971,260.0 600.8625336927224,260.0 602.8032345013477,260.0 604.743935309973,260.0 606.6846361185984,260.0 608.6253369272238,260.0 610.566037735849,260.0 612.5067385444744,260.0 614.4474393530998,260.0 616.3881401617251,260.0 618.3288409703504,260.0 620.2695417789757,260.0 622.2102425876011,260.0 624.1509433962265,260.0 626.0916442048517,260.0 628.0323450134771,260.0 629.9730458221024,260.0 631.9137466307278,260.0 633.8544474393531,260.0 635.7951482479784,260.0 637.7358490566038,260.0 639.6765498652292,260.0 641.6172506738544,260.0 643.5579514824798,260.0 645.4986522911051,260.0 647.4393530997305,260.0 649.3800539083558,260.0 651.3207547169811,260.0 653.2614555256065,260.0 655.2021563342319,260.0 657.1428571428571,260.0 659.0835579514825,260.0 661.0242587601078,260.0 662.9649595687332,260.0 664.9056603773585,260.0 666.8463611859838,260.0 668.7870619946092,260.0 670.7277628032346,260.0 672.6684636118598,260.0 674.6091644204852,260.0 676.5498652291105,260.0 678.4905660377359,260.0 680.4312668463612,260.0 682.3719676549865,260.0 684.3126684636119,260.0 686.2533692722373,260.0 688.1940700808625,260.0 690.1347708894879,249.52380952380952 692.0754716981132,260.0 694.0161725067386,260.0 695.9568733153639,260.0 697.8975741239892,260.0 699.8382749326146,218.0952380952381 701.77897574124,218.0952380952381 703.7196765498652,260.0 705.6603773584906,260.0 707.6010781671159,228.57142857142858 709.5417789757413,155.23809523809524 711.4824797843665,218.0952380952381 713.4231805929919,218.0952380952381 715.3638814016173,134.28571428571428 717.3045822102426,239.04761904761904 719.2452830188679,239.04761904761904 721.1859838274933,218.0952380952381 723.1266846361186,123.8095238095238 725.067385444744,218.0952380952381 727.0080862533692,249.52380952380952 728.9487870619946,239.04761904761904 730.88948787062,40.0 732.8301886792453,197.14285714285714 734.7708894878706,197.14285714285714 736.711590296496,186.66666666666669 738.6522911051213,207.61904761904762 740.5929919137467,186.66666666666669 742.5336927223719,218.0952380952381 744.4743935309973,239.04761904761904 746.4150943396227,81.9047619047619 748.355795148248,197.14285714285714 750.2964959568733,239.04761904761904 752.2371967654987,249.52380952380952 754.177897574124,228.57142857142858 756.1185983827494,165.71428571428572 758.0592991913746,102.85714285714286
758.0592991913746,260
40.0,260
"/>

</svg>
