
<svg width="800" height="300" xmlns="http://www.w3.org/2000/svg">

<defs>
  <linearGradient id="grad" x1="0%" y1="0%" x2="100%" y2="0%">
    <stop offset="0%" stop-color="#7df9ff"/>
    <stop offset="100%" stop-color="#ff6ec7"/>
  </linearGradient>
</defs>


<style>
.title { fill: #c084fc; font-size: 16px; font-weight: 600; }
.label { fill: #9ca3af; font-size: 12px; }
.card { fill: #0d1117; stroke: #1f2937; stroke-width: 1; }
.main { stroke: url(#grad); stroke-width: 3; fill: none; filter: drop-shadow(0 0 6px #7df9ff); }
.shadow { stroke: #ff6ec7; stroke-width: 3; opacity: 0.25; fill: none; filter: blur(4px); }
.pred { stroke: #ffffff; stroke-width: 2; fill: none; stroke-dasharray: 5,5; opacity: 0.4; }
</style>


<rect x="5" y="5" width="790" height="290" rx="12" class="card"/>

<text class="title" x="24" y="40">📈 Contribution Trend</text>
<line x1="20" y1="50" x2="780" y2="50" stroke="#1f2937"/>

<rect x="40.0" y="260" width="24.0" height="6" fill="#ff6ec7" opacity="0.4157894736842105" /><rect x="64.0" y="260" width="24.0" height="6" fill="#ff6ec7" opacity="0.3526315789473684" /><rect x="88.0" y="260" width="24.0" height="6" fill="#ff6ec7" opacity="0.7" /><rect x="112.0" y="260" width="24.0" height="6" fill="#ff6ec7" opacity="0.2894736842105263" /><rect x="136.0" y="260" width="24.0" height="6" fill="#ff6ec7" opacity="0.19473684210526315" /><rect x="160.0" y="260" width="24.0" height="6" fill="#ff6ec7" opacity="0.19473684210526315" /><rect x="184.0" y="260" width="24.0" height="6" fill="#ff6ec7" opacity="0.2894736842105263" /><rect x="208.0" y="260" width="24.0" height="6" fill="#ff6ec7" opacity="0.38421052631578945" /><rect x="232.0" y="260" width="24.0" height="6" fill="#ff6ec7" opacity="0.38421052631578945" /><rect x="256.0" y="260" width="24.0" height="6" fill="#ff6ec7" opacity="0.19473684210526315" /><rect x="280.0" y="260" width="24.0" height="6" fill="#ff6ec7" opacity="0.38421052631578945" /><rect x="304.0" y="260" width="24.0" height="6" fill="#ff6ec7" opacity="0.47894736842105257" /><rect x="328.0" y="260" width="24.0" height="6" fill="#ff6ec7" opacity="0.47894736842105257" /><rect x="352.0" y="260" width="24.0" height="6" fill="#ff6ec7" opacity="0.19473684210526315" /><rect x="376.0" y="260" width="24.0" height="6" fill="#ff6ec7" opacity="0.19473684210526315" /><rect x="400.0" y="260" width="24.0" height="6" fill="#ff6ec7" opacity="0.38421052631578945" /><rect x="424.0" y="260" width="24.0" height="6" fill="#ff6ec7" opacity="0.2894736842105263" /><rect x="448.0" y="260" width="24.0" height="6" fill="#ff6ec7" opacity="0.19473684210526315" /><rect x="472.0" y="260" width="24.0" height="6" fill="#ff6ec7" opacity="0.19473684210526315" /><rect x="496.0" y="260" width="24.0" height="6" fill="#ff6ec7" opacity="0.13157894736842105" /><rect x="520.0" y="260" width="24.0" height="6" fill="#ff6ec7" opacity="0.13157894736842105" /><rect x="544.0" y="260" width="24.0" height="6" fill="#ff6ec7" opacity="0.13157894736842105" /><rect x="568.0" y="260" width="24.0" height="6" fill="#ff6ec7" opacity="0.13157894736842105" /><rect x="592.0" y="260" width="24.0" height="6" fill="#ff6ec7" opacity="0.1" /><rect x="616.0" y="260" width="24.0" height="6" fill="#ff6ec7" opacity="0.1" /><rect x="640.0" y="260" width="24.0" height="6" fill="#ff6ec7" opacity="0.1" /><rect x="664.0" y="260" width="24.0" height="6" fill="#ff6ec7" opacity="0.1" /><rect x="688.0" y="260" width="24.0" height="6" fill="#ff6ec7" opacity="0.1" /><rect x="712.0" y="260" width="24.0" height="6" fill="#ff6ec7" opacity="0.1" /><rect x="736.0" y="260" width="24.0" height="6" fill="#ff6ec7" opacity="0.1" />

<!-- TODAY LINE -->
<line x1="736.0" 
      y1="60" 
      x2="736.0" 
      y2="260"
      stroke="#ff6ec7"
      stroke-opacity="0.3"
      stroke-dasharray="4,4"/>

<text x="736.0" y="50"
      fill="#ff6ec7" font-size="10" text-anchor="middle">
Today
</text>

<polyline class="shadow" points="46.0,154.21052631578948 70.0,177.3684210526316 94.0,50.0 118.0,200.5263157894737 142.0,235.26315789473685 166.0,235.26315789473685 190.0,200.5263157894737 214.0,165.78947368421052 238.0,165.78947368421052 262.0,235.26315789473685 286.0,165.78947368421052 310.0,131.05263157894737 334.0,131.05263157894737 358.0,235.26315789473685 382.0,235.26315789473685 406.0,165.78947368421052 430.0,200.5263157894737 454.0,235.26315789473685 478.0,235.26315789473685 502.0,258.42105263157896 526.0,258.42105263157896 550.0,258.42105263157896 574.0,258.42105263157896 598.0,270.0 622.0,270.0 646.0,270.0 670.0,270.0 694.0,270.0 718.0,270.0 742.0,270.0"/>
<polyline class="main" points="40.0,144.21052631578948 64.0,167.3684210526316 88.0,40.0 112.0,190.5263157894737 136.0,225.26315789473685 160.0,225.26315789473685 184.0,190.5263157894737 208.0,155.78947368421052 232.0,155.78947368421052 256.0,225.26315789473685 280.0,155.78947368421052 304.0,121.05263157894737 328.0,121.05263157894737 352.0,225.26315789473685 376.0,225.26315789473685 400.0,155.78947368421052 424.0,190.5263157894737 448.0,225.26315789473685 472.0,225.26315789473685 496.0,248.42105263157896 520.0,248.42105263157896 544.0,248.42105263157896 568.0,248.42105263157896 592.0,260.0 616.0,260.0 640.0,260.0 664.0,260.0 688.0,260.0 712.0,260.0 736.0,260.0"/>
<polyline class="pred" points="40.0,260.0 64.0,260.0 88.0,260.0 112.0,260.0 136.0,153.47368421052633 160.0,169.68421052631578 184.0,174.31578947368422 208.0,197.4736842105263 232.0,190.5263157894737 256.0,190.5263157894737 280.0,176.63157894736844 304.0,162.73684210526315 328.0,155.78947368421052 352.0,169.68421052631578 376.0,169.68421052631578 400.0,169.68421052631578 424.0,183.57894736842104 448.0,204.42105263157896 472.0,204.42105263157896 496.0,209.05263157894737 520.0,227.57894736842104 544.0,239.1578947368421 568.0,243.78947368421052 592.0,250.73684210526315 616.0,253.05263157894737 640.0,255.3684210526316 664.0,257.6842105263158 688.0,260.0 712.0,260.0 736.0,260.0"/>

<!-- 🔥 ADD CIRCLES HERE -->
<circle cx="40.0" cy="144.21052631578948" r="3" fill="white" stroke="#ff6ec7" stroke-width="1"/><circle cx="64.0" cy="167.3684210526316" r="3" fill="white" stroke="#ff6ec7" stroke-width="1"/><circle cx="88.0" cy="40.0" r="3" fill="white" stroke="#ff6ec7" stroke-width="1"/><circle cx="112.0" cy="190.5263157894737" r="3" fill="white" stroke="#ff6ec7" stroke-width="1"/><circle cx="136.0" cy="225.26315789473685" r="3" fill="white" stroke="#ff6ec7" stroke-width="1"/><circle cx="160.0" cy="225.26315789473685" r="3" fill="white" stroke="#ff6ec7" stroke-width="1"/><circle cx="184.0" cy="190.5263157894737" r="3" fill="white" stroke="#ff6ec7" stroke-width="1"/><circle cx="208.0" cy="155.78947368421052" r="3" fill="white" stroke="#ff6ec7" stroke-width="1"/><circle cx="232.0" cy="155.78947368421052" r="3" fill="white" stroke="#ff6ec7" stroke-width="1"/><circle cx="256.0" cy="225.26315789473685" r="3" fill="white" stroke="#ff6ec7" stroke-width="1"/><circle cx="280.0" cy="155.78947368421052" r="3" fill="white" stroke="#ff6ec7" stroke-width="1"/><circle cx="304.0" cy="121.05263157894737" r="3" fill="white" stroke="#ff6ec7" stroke-width="1"/><circle cx="328.0" cy="121.05263157894737" r="3" fill="white" stroke="#ff6ec7" stroke-width="1"/><circle cx="352.0" cy="225.26315789473685" r="3" fill="white" stroke="#ff6ec7" stroke-width="1"/><circle cx="376.0" cy="225.26315789473685" r="3" fill="white" stroke="#ff6ec7" stroke-width="1"/><circle cx="400.0" cy="155.78947368421052" r="3" fill="white" stroke="#ff6ec7" stroke-width="1"/><circle cx="424.0" cy="190.5263157894737" r="3" fill="white" stroke="#ff6ec7" stroke-width="1"/><circle cx="448.0" cy="225.26315789473685" r="3" fill="white" stroke="#ff6ec7" stroke-width="1"/><circle cx="472.0" cy="225.26315789473685" r="3" fill="white" stroke="#ff6ec7" stroke-width="1"/><circle cx="496.0" cy="248.42105263157896" r="3" fill="white" stroke="#ff6ec7" stroke-width="1"/><circle cx="520.0" cy="248.42105263157896" r="3" fill="white" stroke="#ff6ec7" stroke-width="1"/><circle cx="544.0" cy="248.42105263157896" r="3" fill="white" stroke="#ff6ec7" stroke-width="1"/><circle cx="568.0" cy="248.42105263157896" r="3" fill="white" stroke="#ff6ec7" stroke-width="1"/><circle cx="592.0" cy="260.0" r="3" fill="white" stroke="#ff6ec7" stroke-width="1"/><circle cx="616.0" cy="260.0" r="3" fill="white" stroke="#ff6ec7" stroke-width="1"/><circle cx="640.0" cy="260.0" r="3" fill="white" stroke="#ff6ec7" stroke-width="1"/><circle cx="664.0" cy="260.0" r="3" fill="white" stroke="#ff6ec7" stroke-width="1"/><circle cx="688.0" cy="260.0" r="3" fill="white" stroke="#ff6ec7" stroke-width="1"/><circle cx="712.0" cy="260.0" r="3" fill="white" stroke="#ff6ec7" stroke-width="1"/><circle cx="736.0" cy="260.0" r="3" fill="white" stroke="#ff6ec7" stroke-width="1"/>

<!-- subtle hover illusion -->
<circle cx="736.0" cy="260.0" r="5" fill="#ff6ec7" opacity="0.8">
  <animate attributeName="r" values="4;7;4" dur="2s" repeatCount="indefinite"/>
</circle>

<text class="label" x="24" y="70">
📅 May 27 → Jun 25
</text>

</svg>
