
<svg width="800" height="300" xmlns="http://www.w3.org/2000/svg">

<defs>
  <linearGradient id="grad" x1="0%" y1="0%" x2="100%" y2="0%">
    <stop offset="0%" stop-color="#7df9ff"/>
    <stop offset="100%" stop-color="#ff6ec7"/>
  </linearGradient>
</defs>


<style>
.title { fill: #c084fc; font-size: 16px; font-weight: 600; }
.label { fill: #9ca3af; font-size: 12px; }
.card { fill: #0d1117; stroke: #1f2937; stroke-width: 1; }
.main { stroke: url(#grad); stroke-width: 3; fill: none; filter: drop-shadow(0 0 6px #7df9ff); }
.shadow { stroke: #ff6ec7; stroke-width: 3; opacity: 0.25; fill: none; filter: blur(4px); }
.pred { stroke: #ffffff; stroke-width: 2; fill: none; stroke-dasharray: 5,5; opacity: 0.4; }
</style>


<rect x="5" y="5" width="790" height="290" rx="12" class="card"/>

<text class="title" x="24" y="40">📈 Contribution Trend</text>
<line x1="20" y1="50" x2="780" y2="50" stroke="#1f2937"/>

<rect x="40.0" y="260" width="24.0" height="6" fill="#ff6ec7" opacity="0.15714285714285714" /><rect x="64.0" y="260" width="24.0" height="6" fill="#ff6ec7" opacity="0.15714285714285714" /><rect x="88.0" y="260" width="24.0" height="6" fill="#ff6ec7" opacity="0.21428571428571427" /><rect x="112.0" y="260" width="24.0" height="6" fill="#ff6ec7" opacity="0.4714285714285714" /><rect x="136.0" y="260" width="24.0" height="6" fill="#ff6ec7" opacity="0.21428571428571427" /><rect x="160.0" y="260" width="24.0" height="6" fill="#ff6ec7" opacity="0.12857142857142856" /><rect x="184.0" y="260" width="24.0" height="6" fill="#ff6ec7" opacity="0.15714285714285714" /><rect x="208.0" y="260" width="24.0" height="6" fill="#ff6ec7" opacity="0.7" /><rect x="232.0" y="260" width="24.0" height="6" fill="#ff6ec7" opacity="0.2714285714285714" /><rect x="256.0" y="260" width="24.0" height="6" fill="#ff6ec7" opacity="0.2714285714285714" /><rect x="280.0" y="260" width="24.0" height="6" fill="#ff6ec7" opacity="0.3" /><rect x="304.0" y="260" width="24.0" height="6" fill="#ff6ec7" opacity="0.24285714285714285" /><rect x="328.0" y="260" width="24.0" height="6" fill="#ff6ec7" opacity="0.3" /><rect x="352.0" y="260" width="24.0" height="6" fill="#ff6ec7" opacity="0.21428571428571427" /><rect x="376.0" y="260" width="24.0" height="6" fill="#ff6ec7" opacity="0.15714285714285714" /><rect x="400.0" y="260" width="24.0" height="6" fill="#ff6ec7" opacity="0.5857142857142857" /><rect x="424.0" y="260" width="24.0" height="6" fill="#ff6ec7" opacity="0.2714285714285714" /><rect x="448.0" y="260" width="24.0" height="6" fill="#ff6ec7" opacity="0.15714285714285714" /><rect x="472.0" y="260" width="24.0" height="6" fill="#ff6ec7" opacity="0.12857142857142856" /><rect x="496.0" y="260" width="24.0" height="6" fill="#ff6ec7" opacity="0.18571428571428572" /><rect x="520.0" y="260" width="24.0" height="6" fill="#ff6ec7" opacity="0.3571428571428571" /><rect x="544.0" y="260" width="24.0" height="6" fill="#ff6ec7" opacity="0.6714285714285714" /><rect x="568.0" y="260" width="24.0" height="6" fill="#ff6ec7" opacity="0.3857142857142857" /><rect x="592.0" y="260" width="24.0" height="6" fill="#ff6ec7" opacity="0.12857142857142856" /><rect x="616.0" y="260" width="24.0" height="6" fill="#ff6ec7" opacity="0.12857142857142856" /><rect x="640.0" y="260" width="24.0" height="6" fill="#ff6ec7" opacity="0.2714285714285714" /><rect x="664.0" y="260" width="24.0" height="6" fill="#ff6ec7" opacity="0.15714285714285714" /><rect x="688.0" y="260" width="24.0" height="6" fill="#ff6ec7" opacity="0.15714285714285714" /><rect x="712.0" y="260" width="24.0" height="6" fill="#ff6ec7" opacity="0.15714285714285714" /><rect x="736.0" y="260" width="24.0" height="6" fill="#ff6ec7" opacity="0.15714285714285714" />

<!-- TODAY LINE -->
<line x1="736.0" 
      y1="60" 
      x2="736.0" 
      y2="260"
      stroke="#ff6ec7"
      stroke-opacity="0.3"
      stroke-dasharray="4,4"/>

<text x="736.0" y="50"
      fill="#ff6ec7" font-size="10" text-anchor="middle">
Today
</text>

<polyline class="shadow" points="46.0,249.04761904761904 70.0,249.04761904761904 94.0,228.0952380952381 118.0,133.8095238095238 142.0,228.0952380952381 166.0,259.5238095238095 190.0,249.04761904761904 214.0,50.0 238.0,207.14285714285714 262.0,207.14285714285714 286.0,196.66666666666669 310.0,217.61904761904762 334.0,196.66666666666669 358.0,228.0952380952381 382.0,249.04761904761904 406.0,91.9047619047619 430.0,207.14285714285714 454.0,249.04761904761904 478.0,259.5238095238095 502.0,238.57142857142858 526.0,175.71428571428572 550.0,60.47619047619048 574.0,165.23809523809524 598.0,259.5238095238095 622.0,259.5238095238095 646.0,207.14285714285714 670.0,249.04761904761904 694.0,249.04761904761904 718.0,249.04761904761904 742.0,249.04761904761904"/>
<polyline class="main" points="40.0,239.04761904761904 64.0,239.04761904761904 88.0,218.0952380952381 112.0,123.8095238095238 136.0,218.0952380952381 160.0,249.52380952380952 184.0,239.04761904761904 208.0,40.0 232.0,197.14285714285714 256.0,197.14285714285714 280.0,186.66666666666669 304.0,207.61904761904762 328.0,186.66666666666669 352.0,218.0952380952381 376.0,239.04761904761904 400.0,81.9047619047619 424.0,197.14285714285714 448.0,239.04761904761904 472.0,249.52380952380952 496.0,228.57142857142858 520.0,165.71428571428572 544.0,50.47619047619048 568.0,155.23809523809524 592.0,249.52380952380952 616.0,249.52380952380952 640.0,197.14285714285714 664.0,239.04761904761904 688.0,239.04761904761904 712.0,239.04761904761904 736.0,239.04761904761904"/>
<polyline class="pred" points="40.0,260.0 64.0,260.0 88.0,260.0 112.0,260.0 136.0,207.61904761904762 160.0,209.71428571428572 184.0,209.71428571428572 208.0,174.0952380952381 232.0,188.76190476190476 256.0,184.57142857142856 280.0,172.0 304.0,165.71428571428572 328.0,195.04761904761904 352.0,199.23809523809524 376.0,207.61904761904762 400.0,186.66666666666669 424.0,184.57142857142856 448.0,195.04761904761904 472.0,201.33333333333334 496.0,199.23809523809524 520.0,216.0 544.0,186.66666666666669 568.0,169.90476190476193 592.0,169.90476190476193 616.0,174.0952380952381 640.0,180.38095238095238 664.0,218.0952380952381 688.0,234.85714285714286 712.0,232.76190476190476 736.0,230.66666666666666"/>

<!-- 🔥 ADD CIRCLES HERE -->
<circle cx="40.0" cy="239.04761904761904" r="3" fill="white" stroke="#ff6ec7" stroke-width="1"/><circle cx="64.0" cy="239.04761904761904" r="3" fill="white" stroke="#ff6ec7" stroke-width="1"/><circle cx="88.0" cy="218.0952380952381" r="3" fill="white" stroke="#ff6ec7" stroke-width="1"/><circle cx="112.0" cy="123.8095238095238" r="3" fill="white" stroke="#ff6ec7" stroke-width="1"/><circle cx="136.0" cy="218.0952380952381" r="3" fill="white" stroke="#ff6ec7" stroke-width="1"/><circle cx="160.0" cy="249.52380952380952" r="3" fill="white" stroke="#ff6ec7" stroke-width="1"/><circle cx="184.0" cy="239.04761904761904" r="3" fill="white" stroke="#ff6ec7" stroke-width="1"/><circle cx="208.0" cy="40.0" r="3" fill="white" stroke="#ff6ec7" stroke-width="1"/><circle cx="232.0" cy="197.14285714285714" r="3" fill="white" stroke="#ff6ec7" stroke-width="1"/><circle cx="256.0" cy="197.14285714285714" r="3" fill="white" stroke="#ff6ec7" stroke-width="1"/><circle cx="280.0" cy="186.66666666666669" r="3" fill="white" stroke="#ff6ec7" stroke-width="1"/><circle cx="304.0" cy="207.61904761904762" r="3" fill="white" stroke="#ff6ec7" stroke-width="1"/><circle cx="328.0" cy="186.66666666666669" r="3" fill="white" stroke="#ff6ec7" stroke-width="1"/><circle cx="352.0" cy="218.0952380952381" r="3" fill="white" stroke="#ff6ec7" stroke-width="1"/><circle cx="376.0" cy="239.04761904761904" r="3" fill="white" stroke="#ff6ec7" stroke-width="1"/><circle cx="400.0" cy="81.9047619047619" r="3" fill="white" stroke="#ff6ec7" stroke-width="1"/><circle cx="424.0" cy="197.14285714285714" r="3" fill="white" stroke="#ff6ec7" stroke-width="1"/><circle cx="448.0" cy="239.04761904761904" r="3" fill="white" stroke="#ff6ec7" stroke-width="1"/><circle cx="472.0" cy="249.52380952380952" r="3" fill="white" stroke="#ff6ec7" stroke-width="1"/><circle cx="496.0" cy="228.57142857142858" r="3" fill="white" stroke="#ff6ec7" stroke-width="1"/><circle cx="520.0" cy="165.71428571428572" r="3" fill="white" stroke="#ff6ec7" stroke-width="1"/><circle cx="544.0" cy="50.47619047619048" r="3" fill="white" stroke="#ff6ec7" stroke-width="1"/><circle cx="568.0" cy="155.23809523809524" r="3" fill="white" stroke="#ff6ec7" stroke-width="1"/><circle cx="592.0" cy="249.52380952380952" r="3" fill="white" stroke="#ff6ec7" stroke-width="1"/><circle cx="616.0" cy="249.52380952380952" r="3" fill="white" stroke="#ff6ec7" stroke-width="1"/><circle cx="640.0" cy="197.14285714285714" r="3" fill="white" stroke="#ff6ec7" stroke-width="1"/><circle cx="664.0" cy="239.04761904761904" r="3" fill="white" stroke="#ff6ec7" stroke-width="1"/><circle cx="688.0" cy="239.04761904761904" r="3" fill="white" stroke="#ff6ec7" stroke-width="1"/><circle cx="712.0" cy="239.04761904761904" r="3" fill="white" stroke="#ff6ec7" stroke-width="1"/><circle cx="736.0" cy="239.04761904761904" r="3" fill="white" stroke="#ff6ec7" stroke-width="1"/>

<!-- subtle hover illusion -->
<circle cx="736.0" cy="239.04761904761904" r="5" fill="#ff6ec7" opacity="0.8">
  <animate attributeName="r" values="4;7;4" dur="2s" repeatCount="indefinite"/>
</circle>

<text class="label" x="24" y="70">
📅 Apr 11 → May 10
</text>

</svg>
