
<svg width="800" height="300" xmlns="http://www.w3.org/2000/svg">

<defs>
  <linearGradient id="grad" x1="0%" y1="0%" x2="100%" y2="0%">
    <stop offset="0%" stop-color="#7df9ff"/>
    <stop offset="100%" stop-color="#ff6ec7"/>
  </linearGradient>
</defs>


<style>
.title { fill: #c084fc; font-size: 16px; font-weight: 600; }
.label { fill: #9ca3af; font-size: 12px; }
.card { fill: #0d1117; stroke: #1f2937; stroke-width: 1; }
.main { stroke: url(#grad); stroke-width: 3; fill: none; filter: drop-shadow(0 0 6px #7df9ff); }
.shadow { stroke: #ff6ec7; stroke-width: 3; opacity: 0.25; fill: none; filter: blur(4px); }
.pred { stroke: #ffffff; stroke-width: 2; fill: none; stroke-dasharray: 5,5; opacity: 0.4; }
</style>


<rect x="5" y="5" width="790" height="290" rx="12" class="card"/>

<text class="title" x="24" y="40">📈 Contribution Trend</text>
<line x1="20" y1="50" x2="780" y2="50" stroke="#1f2937"/>

<rect x="40.0" y="260" width="24.0" height="6" fill="#ff6ec7" opacity="0.1631578947368421" /><rect x="64.0" y="260" width="24.0" height="6" fill="#ff6ec7" opacity="0.13157894736842105" /><rect x="88.0" y="260" width="24.0" height="6" fill="#ff6ec7" opacity="0.2263157894736842" /><rect x="112.0" y="260" width="24.0" height="6" fill="#ff6ec7" opacity="0.13157894736842105" /><rect x="136.0" y="260" width="24.0" height="6" fill="#ff6ec7" opacity="0.13157894736842105" /><rect x="160.0" y="260" width="24.0" height="6" fill="#ff6ec7" opacity="0.13157894736842105" /><rect x="184.0" y="260" width="24.0" height="6" fill="#ff6ec7" opacity="0.13157894736842105" /><rect x="208.0" y="260" width="24.0" height="6" fill="#ff6ec7" opacity="0.13157894736842105" /><rect x="232.0" y="260" width="24.0" height="6" fill="#ff6ec7" opacity="0.13157894736842105" /><rect x="256.0" y="260" width="24.0" height="6" fill="#ff6ec7" opacity="0.4157894736842105" /><rect x="280.0" y="260" width="24.0" height="6" fill="#ff6ec7" opacity="0.3526315789473684" /><rect x="304.0" y="260" width="24.0" height="6" fill="#ff6ec7" opacity="0.7" /><rect x="328.0" y="260" width="24.0" height="6" fill="#ff6ec7" opacity="0.2894736842105263" /><rect x="352.0" y="260" width="24.0" height="6" fill="#ff6ec7" opacity="0.19473684210526315" /><rect x="376.0" y="260" width="24.0" height="6" fill="#ff6ec7" opacity="0.19473684210526315" /><rect x="400.0" y="260" width="24.0" height="6" fill="#ff6ec7" opacity="0.2894736842105263" /><rect x="424.0" y="260" width="24.0" height="6" fill="#ff6ec7" opacity="0.38421052631578945" /><rect x="448.0" y="260" width="24.0" height="6" fill="#ff6ec7" opacity="0.38421052631578945" /><rect x="472.0" y="260" width="24.0" height="6" fill="#ff6ec7" opacity="0.19473684210526315" /><rect x="496.0" y="260" width="24.0" height="6" fill="#ff6ec7" opacity="0.38421052631578945" /><rect x="520.0" y="260" width="24.0" height="6" fill="#ff6ec7" opacity="0.47894736842105257" /><rect x="544.0" y="260" width="24.0" height="6" fill="#ff6ec7" opacity="0.47894736842105257" /><rect x="568.0" y="260" width="24.0" height="6" fill="#ff6ec7" opacity="0.19473684210526315" /><rect x="592.0" y="260" width="24.0" height="6" fill="#ff6ec7" opacity="0.19473684210526315" /><rect x="616.0" y="260" width="24.0" height="6" fill="#ff6ec7" opacity="0.38421052631578945" /><rect x="640.0" y="260" width="24.0" height="6" fill="#ff6ec7" opacity="0.2894736842105263" /><rect x="664.0" y="260" width="24.0" height="6" fill="#ff6ec7" opacity="0.19473684210526315" /><rect x="688.0" y="260" width="24.0" height="6" fill="#ff6ec7" opacity="0.19473684210526315" /><rect x="712.0" y="260" width="24.0" height="6" fill="#ff6ec7" opacity="0.13157894736842105" /><rect x="736.0" y="260" width="24.0" height="6" fill="#ff6ec7" opacity="0.1" />

<!-- TODAY LINE -->
<line x1="736.0" 
      y1="60" 
      x2="736.0" 
      y2="260"
      stroke="#ff6ec7"
      stroke-opacity="0.3"
      stroke-dasharray="4,4"/>

<text x="736.0" y="50"
      fill="#ff6ec7" font-size="10" text-anchor="middle">
Today
</text>

<polyline class="shadow" points="46.0,246.8421052631579 70.0,258.42105263157896 94.0,223.68421052631578 118.0,258.42105263157896 142.0,258.42105263157896 166.0,258.42105263157896 190.0,258.42105263157896 214.0,258.42105263157896 238.0,258.42105263157896 262.0,154.21052631578948 286.0,177.3684210526316 310.0,50.0 334.0,200.5263157894737 358.0,235.26315789473685 382.0,235.26315789473685 406.0,200.5263157894737 430.0,165.78947368421052 454.0,165.78947368421052 478.0,235.26315789473685 502.0,165.78947368421052 526.0,131.05263157894737 550.0,131.05263157894737 574.0,235.26315789473685 598.0,235.26315789473685 622.0,165.78947368421052 646.0,200.5263157894737 670.0,235.26315789473685 694.0,235.26315789473685 718.0,258.42105263157896 742.0,270.0"/>
<polyline class="main" points="40.0,236.8421052631579 64.0,248.42105263157896 88.0,213.68421052631578 112.0,248.42105263157896 136.0,248.42105263157896 160.0,248.42105263157896 184.0,248.42105263157896 208.0,248.42105263157896 232.0,248.42105263157896 256.0,144.21052631578948 280.0,167.3684210526316 304.0,40.0 328.0,190.5263157894737 352.0,225.26315789473685 376.0,225.26315789473685 400.0,190.5263157894737 424.0,155.78947368421052 448.0,155.78947368421052 472.0,225.26315789473685 496.0,155.78947368421052 520.0,121.05263157894737 544.0,121.05263157894737 568.0,225.26315789473685 592.0,225.26315789473685 616.0,155.78947368421052 640.0,190.5263157894737 664.0,225.26315789473685 688.0,225.26315789473685 712.0,248.42105263157896 736.0,260.0"/>
<polyline class="pred" points="40.0,260.0 64.0,260.0 88.0,260.0 112.0,260.0 136.0,239.1578947368421 160.0,241.4736842105263 184.0,241.4736842105263 208.0,248.42105263157896 232.0,248.42105263157896 256.0,227.57894736842104 280.0,211.36842105263156 304.0,169.68421052631578 328.0,158.10526315789474 352.0,153.47368421052633 376.0,169.68421052631578 400.0,174.31578947368422 424.0,197.4736842105263 448.0,190.5263157894737 472.0,190.5263157894737 496.0,176.63157894736844 520.0,162.73684210526315 544.0,155.78947368421052 568.0,169.68421052631578 592.0,169.68421052631578 616.0,169.68421052631578 640.0,183.57894736842104 664.0,204.42105263157896 688.0,204.42105263157896 712.0,209.05263157894737 736.0,229.89473684210526"/>

<!-- 🔥 ADD CIRCLES HERE -->
<circle cx="40.0" cy="236.8421052631579" r="3" fill="white" stroke="#ff6ec7" stroke-width="1"/><circle cx="64.0" cy="248.42105263157896" r="3" fill="white" stroke="#ff6ec7" stroke-width="1"/><circle cx="88.0" cy="213.68421052631578" r="3" fill="white" stroke="#ff6ec7" stroke-width="1"/><circle cx="112.0" cy="248.42105263157896" r="3" fill="white" stroke="#ff6ec7" stroke-width="1"/><circle cx="136.0" cy="248.42105263157896" r="3" fill="white" stroke="#ff6ec7" stroke-width="1"/><circle cx="160.0" cy="248.42105263157896" r="3" fill="white" stroke="#ff6ec7" stroke-width="1"/><circle cx="184.0" cy="248.42105263157896" r="3" fill="white" stroke="#ff6ec7" stroke-width="1"/><circle cx="208.0" cy="248.42105263157896" r="3" fill="white" stroke="#ff6ec7" stroke-width="1"/><circle cx="232.0" cy="248.42105263157896" r="3" fill="white" stroke="#ff6ec7" stroke-width="1"/><circle cx="256.0" cy="144.21052631578948" r="3" fill="white" stroke="#ff6ec7" stroke-width="1"/><circle cx="280.0" cy="167.3684210526316" r="3" fill="white" stroke="#ff6ec7" stroke-width="1"/><circle cx="304.0" cy="40.0" r="3" fill="white" stroke="#ff6ec7" stroke-width="1"/><circle cx="328.0" cy="190.5263157894737" r="3" fill="white" stroke="#ff6ec7" stroke-width="1"/><circle cx="352.0" cy="225.26315789473685" r="3" fill="white" stroke="#ff6ec7" stroke-width="1"/><circle cx="376.0" cy="225.26315789473685" r="3" fill="white" stroke="#ff6ec7" stroke-width="1"/><circle cx="400.0" cy="190.5263157894737" r="3" fill="white" stroke="#ff6ec7" stroke-width="1"/><circle cx="424.0" cy="155.78947368421052" r="3" fill="white" stroke="#ff6ec7" stroke-width="1"/><circle cx="448.0" cy="155.78947368421052" r="3" fill="white" stroke="#ff6ec7" stroke-width="1"/><circle cx="472.0" cy="225.26315789473685" r="3" fill="white" stroke="#ff6ec7" stroke-width="1"/><circle cx="496.0" cy="155.78947368421052" r="3" fill="white" stroke="#ff6ec7" stroke-width="1"/><circle cx="520.0" cy="121.05263157894737" r="3" fill="white" stroke="#ff6ec7" stroke-width="1"/><circle cx="544.0" cy="121.05263157894737" r="3" fill="white" stroke="#ff6ec7" stroke-width="1"/><circle cx="568.0" cy="225.26315789473685" r="3" fill="white" stroke="#ff6ec7" stroke-width="1"/><circle cx="592.0" cy="225.26315789473685" r="3" fill="white" stroke="#ff6ec7" stroke-width="1"/><circle cx="616.0" cy="155.78947368421052" r="3" fill="white" stroke="#ff6ec7" stroke-width="1"/><circle cx="640.0" cy="190.5263157894737" r="3" fill="white" stroke="#ff6ec7" stroke-width="1"/><circle cx="664.0" cy="225.26315789473685" r="3" fill="white" stroke="#ff6ec7" stroke-width="1"/><circle cx="688.0" cy="225.26315789473685" r="3" fill="white" stroke="#ff6ec7" stroke-width="1"/><circle cx="712.0" cy="248.42105263157896" r="3" fill="white" stroke="#ff6ec7" stroke-width="1"/><circle cx="736.0" cy="260.0" r="3" fill="white" stroke="#ff6ec7" stroke-width="1"/>

<!-- subtle hover illusion -->
<circle cx="736.0" cy="260.0" r="5" fill="#ff6ec7" opacity="0.8">
  <animate attributeName="r" values="4;7;4" dur="2s" repeatCount="indefinite"/>
</circle>

<text class="label" x="24" y="70">
📅 May 18 → Jun 16
</text>

</svg>
