
<svg width="800" height="300" xmlns="http://www.w3.org/2000/svg">

<defs>
  <linearGradient id="grad" x1="0%" y1="0%" x2="100%" y2="0%">
    <stop offset="0%" stop-color="#7df9ff"/>
    <stop offset="100%" stop-color="#ff6ec7"/>
  </linearGradient>
</defs>


<style>
.title { fill: #c084fc; font-size: 16px; font-weight: 600; }
.label { fill: #9ca3af; font-size: 12px; }
.card { fill: #0d1117; stroke: #1f2937; stroke-width: 1; }
.main { stroke: url(#grad); stroke-width: 3; fill: none; filter: drop-shadow(0 0 6px #7df9ff); }
.shadow { stroke: #ff6ec7; stroke-width: 3; opacity: 0.25; fill: none; filter: blur(4px); }
.pred { stroke: #ffffff; stroke-width: 2; fill: none; stroke-dasharray: 5,5; opacity: 0.4; }
</style>


<rect x="5" y="5" width="790" height="290" rx="12" class="card"/>

<text class="title" x="24" y="40">📈 Contribution Trend</text>
<line x1="20" y1="50" x2="780" y2="50" stroke="#1f2937"/>

<rect x="40.0" y="260" width="24.0" height="6" fill="#ff6ec7" opacity="0.1" /><rect x="64.0" y="260" width="24.0" height="6" fill="#ff6ec7" opacity="0.1" /><rect x="88.0" y="260" width="24.0" height="6" fill="#ff6ec7" opacity="0.1" /><rect x="112.0" y="260" width="24.0" height="6" fill="#ff6ec7" opacity="0.1" /><rect x="136.0" y="260" width="24.0" height="6" fill="#ff6ec7" opacity="0.1" /><rect x="160.0" y="260" width="24.0" height="6" fill="#ff6ec7" opacity="0.1" /><rect x="184.0" y="260" width="24.0" height="6" fill="#ff6ec7" opacity="0.1" /><rect x="208.0" y="260" width="24.0" height="6" fill="#ff6ec7" opacity="0.1" /><rect x="232.0" y="260" width="24.0" height="6" fill="#ff6ec7" opacity="0.1" /><rect x="256.0" y="260" width="24.0" height="6" fill="#ff6ec7" opacity="0.1" /><rect x="280.0" y="260" width="24.0" height="6" fill="#ff6ec7" opacity="0.1" /><rect x="304.0" y="260" width="24.0" height="6" fill="#ff6ec7" opacity="0.1" /><rect x="328.0" y="260" width="24.0" height="6" fill="#ff6ec7" opacity="0.1" /><rect x="352.0" y="260" width="24.0" height="6" fill="#ff6ec7" opacity="0.1" /><rect x="376.0" y="260" width="24.0" height="6" fill="#ff6ec7" opacity="0.1" /><rect x="400.0" y="260" width="24.0" height="6" fill="#ff6ec7" opacity="0.1" /><rect x="424.0" y="260" width="24.0" height="6" fill="#ff6ec7" opacity="0.1" /><rect x="448.0" y="260" width="24.0" height="6" fill="#ff6ec7" opacity="0.1" /><rect x="472.0" y="260" width="24.0" height="6" fill="#ff6ec7" opacity="0.1" /><rect x="496.0" y="260" width="24.0" height="6" fill="#ff6ec7" opacity="0.1" /><rect x="520.0" y="260" width="24.0" height="6" fill="#ff6ec7" opacity="0.1" /><rect x="544.0" y="260" width="24.0" height="6" fill="#ff6ec7" opacity="0.1" /><rect x="568.0" y="260" width="24.0" height="6" fill="#ff6ec7" opacity="0.1" /><rect x="592.0" y="260" width="24.0" height="6" fill="#ff6ec7" opacity="0.1" /><rect x="616.0" y="260" width="24.0" height="6" fill="#ff6ec7" opacity="0.1" /><rect x="640.0" y="260" width="24.0" height="6" fill="#ff6ec7" opacity="0.1" /><rect x="664.0" y="260" width="24.0" height="6" fill="#ff6ec7" opacity="0.1" /><rect x="688.0" y="260" width="24.0" height="6" fill="#ff6ec7" opacity="0.1" /><rect x="712.0" y="260" width="24.0" height="6" fill="#ff6ec7" opacity="0.1" /><rect x="736.0" y="260" width="24.0" height="6" fill="#ff6ec7" opacity="0.1" />

<!-- TODAY LINE -->
<line x1="736.0" 
      y1="60" 
      x2="736.0" 
      y2="260"
      stroke="#ff6ec7"
      stroke-opacity="0.3"
      stroke-dasharray="4,4"/>

<text x="736.0" y="50"
      fill="#ff6ec7" font-size="10" text-anchor="middle">
Today
</text>

<polyline class="shadow" points="46.0,270.0 70.0,270.0 94.0,270.0 118.0,270.0 142.0,270.0 166.0,270.0 190.0,270.0 214.0,270.0 238.0,270.0 262.0,270.0 286.0,270.0 310.0,270.0 334.0,270.0 358.0,270.0 382.0,270.0 406.0,270.0 430.0,270.0 454.0,270.0 478.0,270.0 502.0,270.0 526.0,270.0 550.0,270.0 574.0,270.0 598.0,270.0 622.0,270.0 646.0,270.0 670.0,270.0 694.0,270.0 718.0,270.0 742.0,270.0"/>
<polyline class="main" points="40.0,260.0 64.0,260.0 88.0,260.0 112.0,260.0 136.0,260.0 160.0,260.0 184.0,260.0 208.0,260.0 232.0,260.0 256.0,260.0 280.0,260.0 304.0,260.0 328.0,260.0 352.0,260.0 376.0,260.0 400.0,260.0 424.0,260.0 448.0,260.0 472.0,260.0 496.0,260.0 520.0,260.0 544.0,260.0 568.0,260.0 592.0,260.0 616.0,260.0 640.0,260.0 664.0,260.0 688.0,260.0 712.0,260.0 736.0,260.0"/>
<polyline class="pred" points="40.0,260.0 64.0,260.0 88.0,260.0 112.0,260.0 136.0,260.0 160.0,260.0 184.0,260.0 208.0,260.0 232.0,260.0 256.0,260.0 280.0,260.0 304.0,260.0 328.0,260.0 352.0,260.0 376.0,260.0 400.0,260.0 424.0,260.0 448.0,260.0 472.0,260.0 496.0,260.0 520.0,260.0 544.0,260.0 568.0,260.0 592.0,260.0 616.0,260.0 640.0,260.0 664.0,260.0 688.0,260.0 712.0,260.0 736.0,260.0"/>

<!-- 🔥 ADD CIRCLES HERE -->
<circle cx="40.0" cy="260.0" r="3" fill="white" stroke="#ff6ec7" stroke-width="1"/><circle cx="64.0" cy="260.0" r="3" fill="white" stroke="#ff6ec7" stroke-width="1"/><circle cx="88.0" cy="260.0" r="3" fill="white" stroke="#ff6ec7" stroke-width="1"/><circle cx="112.0" cy="260.0" r="3" fill="white" stroke="#ff6ec7" stroke-width="1"/><circle cx="136.0" cy="260.0" r="3" fill="white" stroke="#ff6ec7" stroke-width="1"/><circle cx="160.0" cy="260.0" r="3" fill="white" stroke="#ff6ec7" stroke-width="1"/><circle cx="184.0" cy="260.0" r="3" fill="white" stroke="#ff6ec7" stroke-width="1"/><circle cx="208.0" cy="260.0" r="3" fill="white" stroke="#ff6ec7" stroke-width="1"/><circle cx="232.0" cy="260.0" r="3" fill="white" stroke="#ff6ec7" stroke-width="1"/><circle cx="256.0" cy="260.0" r="3" fill="white" stroke="#ff6ec7" stroke-width="1"/><circle cx="280.0" cy="260.0" r="3" fill="white" stroke="#ff6ec7" stroke-width="1"/><circle cx="304.0" cy="260.0" r="3" fill="white" stroke="#ff6ec7" stroke-width="1"/><circle cx="328.0" cy="260.0" r="3" fill="white" stroke="#ff6ec7" stroke-width="1"/><circle cx="352.0" cy="260.0" r="3" fill="white" stroke="#ff6ec7" stroke-width="1"/><circle cx="376.0" cy="260.0" r="3" fill="white" stroke="#ff6ec7" stroke-width="1"/><circle cx="400.0" cy="260.0" r="3" fill="white" stroke="#ff6ec7" stroke-width="1"/><circle cx="424.0" cy="260.0" r="3" fill="white" stroke="#ff6ec7" stroke-width="1"/><circle cx="448.0" cy="260.0" r="3" fill="white" stroke="#ff6ec7" stroke-width="1"/><circle cx="472.0" cy="260.0" r="3" fill="white" stroke="#ff6ec7" stroke-width="1"/><circle cx="496.0" cy="260.0" r="3" fill="white" stroke="#ff6ec7" stroke-width="1"/><circle cx="520.0" cy="260.0" r="3" fill="white" stroke="#ff6ec7" stroke-width="1"/><circle cx="544.0" cy="260.0" r="3" fill="white" stroke="#ff6ec7" stroke-width="1"/><circle cx="568.0" cy="260.0" r="3" fill="white" stroke="#ff6ec7" stroke-width="1"/><circle cx="592.0" cy="260.0" r="3" fill="white" stroke="#ff6ec7" stroke-width="1"/><circle cx="616.0" cy="260.0" r="3" fill="white" stroke="#ff6ec7" stroke-width="1"/><circle cx="640.0" cy="260.0" r="3" fill="white" stroke="#ff6ec7" stroke-width="1"/><circle cx="664.0" cy="260.0" r="3" fill="white" stroke="#ff6ec7" stroke-width="1"/><circle cx="688.0" cy="260.0" r="3" fill="white" stroke="#ff6ec7" stroke-width="1"/><circle cx="712.0" cy="260.0" r="3" fill="white" stroke="#ff6ec7" stroke-width="1"/><circle cx="736.0" cy="260.0" r="3" fill="white" stroke="#ff6ec7" stroke-width="1"/>

<!-- subtle hover illusion -->
<circle cx="736.0" cy="260.0" r="5" fill="#ff6ec7" opacity="0.8">
  <animate attributeName="r" values="4;7;4" dur="2s" repeatCount="indefinite"/>
</circle>

<text class="label" x="24" y="70">
📅 Jun 24 → Jul 23
</text>

</svg>
