
<svg width="800" height="220" xmlns="http://www.w3.org/2000/svg">

<defs>
  <linearGradient id="cardGrad" x1="0%" y1="0%" x2="100%" y2="100%">
    <stop offset="0%" stop-color="#7df9ff" stop-opacity="0.15"/>
    <stop offset="100%" stop-color="#ff6ec7" stop-opacity="0.15"/>
  </linearGradient>
</defs>

<style>
.title { fill: #c084fc; font-size: 16px; font-weight: 600; }
.label { fill: #9ca3af; font-size: 11px; text-anchor: middle; }
.value { fill: #ffffff; font-size: 18px; font-weight: 600; text-anchor: middle; }
.card { fill: #0d1117; stroke: #1f2937; stroke-width: 1; }
.glass { fill: url(#cardGrad); stroke: #7df9ff; stroke-opacity: 0.2; }
.spark { fill: none; stroke: #7df9ff; stroke-width: 1.5; opacity: 0.7; }
.spark-alt { fill: none; stroke: #ff6ec7; stroke-width: 1.5; opacity: 0.6; }
</style>

<rect x="5" y="5" width="790" height="210" rx="12" class="card"/>

<text class="title" x="24" y="40">🧠 Dev Insights</text>
<circle cx="760" cy="35" r="3" fill="#ff6ec7"/>
<line x1="20" y1="50" x2="780" y2="50" stroke="#1f2937"/>

<!-- ===== ROW 1 ===== -->
<!-- AVG -->
<g transform="translate(40,70)">
  <rect width="200" height="80" rx="10" class="glass"/>
  <text class="label" x="100" y="20">Avg</text>
  <text class="value" x="100" y="45">3.97</text>
  <polyline class="spark" points="0.0,26.842105263157894 12.307692307692308,28.42105263157895 24.615384615384617,23.684210526315788 36.92307692307693,28.42105263157895 49.23076923076923,28.42105263157895 61.53846153846154,28.42105263157895 73.84615384615385,28.42105263157895 86.15384615384616,28.42105263157895 98.46153846153847,28.42105263157895 110.76923076923077,14.210526315789474 123.07692307692308,17.36842105263158 135.3846153846154,0.0 147.6923076923077,20.526315789473685 160.0,25.263157894736842" transform="translate(20,50)"/>
</g>

<!-- PEAK -->
<g transform="translate(300,70)">
  <rect width="200" height="80" rx="10" class="glass"/>
  <text class="label" x="100" y="20">Peak</text>
  <text class="value" x="100" y="45">20</text>
  <polyline class="spark-alt" points="0.0,30.0 12.307692307692308,27.692307692307693 24.615384615384617,23.076923076923077 36.92307692307693,23.076923076923077 49.23076923076923,30.0 61.53846153846154,30.0 73.84615384615385,30.0 86.15384615384616,30.0 98.46153846153847,30.0 110.76923076923077,9.23076923076923 123.07692307692308,25.384615384615383 135.3846153846154,4.615384615384617 147.6923076923077,0.0 160.0,23.076923076923077" transform="translate(20,50)"/>
</g>

<!-- MOMENTUM -->
<g transform="translate(560,70)">
  <rect width="200" height="80" rx="10"
        fill="#ff6ec7" fill-opacity="0.15" stroke="#ff6ec7" stroke-opacity="0.3"/>
  <text class="label" x="100" y="20">Momentum</text>
  <text class="value" x="100" y="45">📈 Rising</text>
</g>

<!-- ===== ROW 2 ===== -->
<!-- CONSISTENCY -->
<g transform="translate(160,160)">
  <rect width="200" height="60" rx="10" class="glass"/>
  <text class="label" x="100" y="20">Consistency</text>
  <text class="value" x="100" y="40">100%</text>
  <polyline class="spark" points="0.0,0.0 12.307692307692308,0.0 24.615384615384617,0.0 36.92307692307693,0.0 49.23076923076923,0.0 61.53846153846154,0.0 73.84615384615385,0.0 86.15384615384616,0.0 98.46153846153847,0.0 110.76923076923077,0.0 123.07692307692308,0.0 135.3846153846154,0.0 147.6923076923077,0.0 160.0,0.0" transform="translate(20,45) scale(1,0.6)"/>
</g>

<!-- BEST DAY -->
<g transform="translate(440,160)">
  <rect width="200" height="60" rx="10" class="glass"/>
  <text class="label" x="100" y="20">Best Day</text>
  <text class="value" x="100" y="40">Sat</text>
  <polyline class="spark-alt" points="0.0,24.31818181818182 26.666666666666668,24.31818181818182 53.333333333333336,6.136363636363633 80.0,12.954545454545453 106.66666666666667,3.8636363636363633 133.33333333333334,0.0 160.0,14.545454545454547" transform="translate(20,45) scale(1,0.6)"/>
</g>

<!-- SIGNATURE -->
<text x="720" y="40" fill="#9ca3af" opacity="0.8" font-size="12" text-anchor="end">
Built by Sarowar ⚡
</text>

</svg>
