
<svg width="800" height="200" xmlns="http://www.w3.org/2000/svg">

<defs>
  <linearGradient id="grad" x1="0%" y1="0%" x2="100%" y2="0%">
    <stop offset="0%" stop-color="#7df9ff"/>
    <stop offset="100%" stop-color="#ff6ec7"/>
  </linearGradient>
</defs>


<style>
.title { fill: #c084fc; font-size: 16px; font-weight: 600; }
.label { fill: #9ca3af; font-size: 12px; }
.card { fill: #0d1117; stroke: #1f2937; stroke-width: 1; }
.main { stroke: url(#grad); stroke-width: 3; fill: none; filter: drop-shadow(0 0 6px #7df9ff); }
.shadow { stroke: #ff6ec7; stroke-width: 3; opacity: 0.25; fill: none; filter: blur(4px); }
.pred { stroke: #ffffff; stroke-width: 2; fill: none; stroke-dasharray: 5,5; opacity: 0.4; }
</style>


<rect x="5" y="5" width="790" height="190" rx="12" class="card"/>

<text class="title" x="24" y="40">📊 Weekly Activity</text>

<text x="700" y="40" fill="#666" font-size="10">
Last 7 days
</text>

<line x1="20" y1="50" x2="780" y2="50" stroke="#1f2937"/>


    <rect x="40" y="144.0" width="50" height="36.0" rx="6"
          fill="url(#grad)" />

    <!-- light edge -->
    <rect x="40" y="144.0" width="50" height="6"
          fill="white" opacity="0.15"/>

    <!-- subtle glow -->
    <rect x="40" y="144.0" width="50" height="36.0" rx="6"
          fill="none" stroke="#ff6ec7" stroke-opacity="0.2"/>
    
    <rect x="140" y="168.0" width="50" height="12.0" rx="6"
          fill="url(#grad)" />

    <!-- light edge -->
    <rect x="140" y="168.0" width="50" height="6"
          fill="white" opacity="0.15"/>

    <!-- subtle glow -->
    <rect x="140" y="168.0" width="50" height="12.0" rx="6"
          fill="none" stroke="#ff6ec7" stroke-opacity="0.2"/>
    
    <rect x="240" y="174.0" width="50" height="6.0" rx="6"
          fill="url(#grad)" />

    <!-- light edge -->
    <rect x="240" y="174.0" width="50" height="6"
          fill="white" opacity="0.15"/>

    <!-- subtle glow -->
    <rect x="240" y="174.0" width="50" height="6.0" rx="6"
          fill="none" stroke="#ff6ec7" stroke-opacity="0.2"/>
    
    <rect x="340" y="162.0" width="50" height="18.0" rx="6"
          fill="url(#grad)" />

    <!-- light edge -->
    <rect x="340" y="162.0" width="50" height="6"
          fill="white" opacity="0.15"/>

    <!-- subtle glow -->
    <rect x="340" y="162.0" width="50" height="18.0" rx="6"
          fill="none" stroke="#ff6ec7" stroke-opacity="0.2"/>
    
    <rect x="440" y="126.0" width="50" height="54.0" rx="6"
          fill="url(#grad)" />

    <!-- light edge -->
    <rect x="440" y="126.0" width="50" height="6"
          fill="white" opacity="0.15"/>

    <!-- subtle glow -->
    <rect x="440" y="126.0" width="50" height="54.0" rx="6"
          fill="none" stroke="#ff6ec7" stroke-opacity="0.2"/>
    
    <rect x="540" y="60.0" width="50" height="120.0" rx="6"
          fill="url(#grad)" />

    <!-- light edge -->
    <rect x="540" y="60.0" width="50" height="6"
          fill="white" opacity="0.15"/>

    <!-- subtle glow -->
    <rect x="540" y="60.0" width="50" height="120.0" rx="6"
          fill="none" stroke="#ff6ec7" stroke-opacity="0.2"/>
    
    <rect x="640" y="162.0" width="50" height="18.0" rx="6"
          fill="url(#grad)" />

    <!-- light edge -->
    <rect x="640" y="162.0" width="50" height="6"
          fill="white" opacity="0.15"/>

    <!-- subtle glow -->
    <rect x="640" y="162.0" width="50" height="18.0" rx="6"
          fill="none" stroke="#ff6ec7" stroke-opacity="0.2"/>
    
<text x="55" y="195" fill="#9ca3af" font-size="11">Mon</text><text x="55" y="139.0" fill="#aaa" font-size="10">6</text><text x="155" y="195" fill="#9ca3af" font-size="11">Tue</text><text x="155" y="163.0" fill="#aaa" font-size="10">2</text><text x="255" y="195" fill="#9ca3af" font-size="11">Wed</text><text x="255" y="169.0" fill="#aaa" font-size="10">1</text><text x="355" y="195" fill="#9ca3af" font-size="11">Thu</text><text x="355" y="157.0" fill="#aaa" font-size="10">3</text><text x="455" y="195" fill="#9ca3af" font-size="11">Fri</text><text x="455" y="121.0" fill="#aaa" font-size="10">9</text><text x="555" y="195" fill="#9ca3af" font-size="11">Sat</text><text x="555" y="55.0" fill="#aaa" font-size="10">20</text><text x="655" y="195" fill="#9ca3af" font-size="11">Sun</text><text x="655" y="157.0" fill="#aaa" font-size="10">3</text>

</svg>
